<?xml version="1.0" encoding="utf-8"?>
<!-- Generator: Adobe Illustrator 23.0.3, SVG Export Plug-In . SVG Version: 6.00 Build 0)  -->
<svg version="1.1" id="Layer_1" xmlns="http://www.w3.org/2000/svg" xmlns:xlink="http://www.w3.org/1999/xlink" x="0px" y="0px"
	 viewBox="0 0 500 500" style="enable-background:new 0 0 500 500;" xml:space="preserve">
<style type="text/css">
	.st0{fill:#EFCC24;}
	.st1{fill:#D1AF2B;}
	.st2{fill:#466088;}
	.st3{fill:#FCB33D;}
	.st4{fill:#E29C37;}
	.st5{fill:#677DBD;}
	.st6{fill:#F3E8DB;}
	.st7{fill:#434848;}
	.st8{fill:#5671AA;}
	.st9{fill:#E8DED4;}
	.st10{fill:#FFFFFF;}
	.st11{fill:#353438;}
	.st12{opacity:0.23;fill:#FFFFFF;}
	.st13{opacity:0.65;fill:#FFFFFF;}
</style>
<g>
	<path class="st0" d="M200.9,235c-15.7,9.6-29.5,22.1-44.5,32.8c-45.1,32.5-103,49.7-157.4,38.5c0.8,12.7,8.5,24.8,19.7,30.8
		c4.2,2.3,8.9,3.8,12.9,6.4c11.4,7.5,15.2,22.2,23.2,33.3c10.7,14.8,29.1,22.6,47.2,24.5c13.9,1.5,28,0,41.8,2.2
		c12.5,2,24.2,7.1,36.2,11.1c17.5,5.9,35.7,9.6,54.2,11c23.8,1.9,47.8,0,71.6-1.9c19.1-1.5,38.1-3,57.2-4.5
		c9.5-0.7,19.2-1.5,28.1-5.2c8.8-3.6,16.8-10.6,19.2-19.9c2.8-11.1-2.8-22.3-8.2-32.4c-7.7-14.3-15.4-28.7-23.1-43
		c4-1.6,8-3.3,12.1-4.9c-4.4,1.5-9.4-0.8-12.4-4.4c-3-3.6-4.5-8.1-5.9-12.6c-3.2-10-6.3-20.1-9.5-30.1c-3.5-11-7.4-22.6-16.6-29.6
		c-7.5-5.6-17.2-7.1-26.6-7.9c-21.5-1.7-47.8,6-67.4-4.1C235.1,216.3,216.7,225.3,200.9,235z"/>
	<g>
		<path class="st1" d="M10.7,331.1c0.5-0.7,1-1.4,1.6-2c4.4-4.4,10.7-6.2,16.7-7.7c34-8.4,69.1-13.5,101.5-26.9
			c11-4.5,21.5-10.1,31.3-16.8c8.5-5.9,16.4-12.6,23.3-20.4c3.6-4,14.1-14.4,13.6-21.1c-14.8,9.4-28,21.2-42.3,31.4
			c-45.1,32.5-103,49.7-157.4,38.5C-0.4,315.6,4,324.6,10.7,331.1z"/>
		<path class="st1" d="M54.8,376.7c0.8,1,1.6,2,2.4,3c0.8-3.7,2.3-7.4,4.2-10.7c5-8.5,12.8-15.1,20.7-21
			c9.5-7.1,19.4-13.5,29.7-19.3c-22.9,11.8-48.2,18.7-73.9,20.3C44.8,357,48.5,368,54.8,376.7z"/>
		<path class="st1" d="M338.2,421c-7.7-10.5-13.8-22.2-18-34.5c-4.2,11.4-2.7,23.9-2.1,36.2C324.9,422.2,331.6,421.6,338.2,421
			C338.3,421.1,338.2,421,338.2,421z"/>
		<path class="st1" d="M147,390.3c-3,4.1-6.3,8.4-9.7,12.4c2.2,0.2,4.4,0.4,6.6,0.8c5.7,0.9,11.3,2.5,16.7,4.3
			c-0.1-1.4-0.2-2.7-0.3-4.1c-0.2-4.2-0.3-8.6-2.7-12C155.2,388.2,149.5,386.9,147,390.3z"/>
	</g>
	<path class="st2" d="M456,153.7c12.3,3.8,23.3,11.5,31.1,21.7c-18.2,1.2-35.9-5.2-53.1-11.5c15.2,9,28.4,22.8,32.8,39.9
		c2.5,9.8,2,20.1,1.5,30.2c-1.9-2.5-4.5-4.3-7-6c-11.4-7.6-23.4-14.3-34.2-22.7c-10.8-8.4-20.5-18.9-25.1-31.7
		c-1.6-4.4-2.6-9.6-0.3-13.7c2-3.7,6.2-5.7,10.3-5.9c4.5-0.3,7.8-0.6,12.3-1.6C434.7,150.2,445.7,150.6,456,153.7z"/>
	<path class="st3" d="M165.1,192.8c-3.4-5.7-5.4-12.2-9.5-17.4c-0.5-0.6-1.1-1.2-1.8-1.3c-1.4-0.1-2,1.8-2.1,3.2
		c-0.3,5,0.4,10.1,2,14.9c-0.2-2.7-3.5-4.8-6-3.8c-2.6,1-3.6,4.7-1.9,6.8c-2.1-0.4-3.8,2.1-3.5,4.2c0.3,2.1,1.8,3.8,3.3,5.4
		c4.9,5.2,9.8,10.4,14.7,15.6c3.2,3.4,6.5,6.9,10.9,8.7c4.3,1.8,9.9,1.3,12.9-2.3c2.1-2.6,2.4-6.2,1.6-9.4
		C182.6,206.1,170.9,202.4,165.1,192.8z"/>
	<path class="st4" d="M253.8,313.1c-29.7-6.3-61.1-0.5-88.5,12.6c-27.6,13.2-53.3,34.1-83.9,35.6c30.8,22,68.3,34.5,106.1,35.4
		c8.1,0.2,16.3-0.1,24.2-2c11.9-2.8,22.8-9,33-15.7c9.7-6.4,19-13.4,27.1-21.7c4.5-4.7,8.7-10,10.8-16.3c2.1-6.2,1.8-13.5-2.1-18.8
		c-3-4.1-7.1-5.2-11.8-5.9C263.5,315.4,259.2,314.2,253.8,313.1z"/>
	<path class="st3" d="M396.6,235.2c13,1.9,26.8,4.9,35.9,14.4c8.7,9.1,11.3,23.1,8.3,35.3c-1.4,5.5-3.8,10.9-7.2,15.4
		c-6.9,9-17.6,14.4-28,18.9c-5.5,2.3-12.4,4.3-16.9,0.4c-3.5-3-3.8-8.1-4-12.7c0-0.9,0-1.8,0.6-2.5c0.6-0.6,1.5-0.7,2.4-0.8
		c7.4-0.8,14.5-4.5,19.4-10.2c2.4-2.8,4.3-6.3,3.8-9.9c-0.6-4.3-4.5-7.5-8.5-9.1c-6-2.4-12.7-2.6-19.1-1.9c-3,0.3-6.2,0.7-9-0.4
		c-1.8-0.7-3.3-2.1-4.6-3.5c-4.8-5.3-7.5-12.5-7.5-19.7c0-6.1,2.6-12.9,8.3-15C378.2,231.1,388.9,234.1,396.6,235.2z"/>
	<path class="st3" d="M174,204.2c-2.8-1.3-5.8-2.6-8.7-1.7c-3.7,1.2-5.4,5.7-4.7,9.5c0.7,3.8,3.2,7,5.7,10
		c20.4,24.2,46.2,44.6,76,55.3c3.9,1.4,8,2.7,12.1,2.8c9,0.3,17.9-5.2,22-13.3c6.9-13.6-1.6-38.2-19.7-35.6
		c-7.9,1.1-12.7,1.6-20.6-1.2c-10-3.5-19.8-7.5-29.6-11.5C195.5,214,184.7,209.3,174,204.2z"/>
	<path class="st3" d="M243.9,284.3c-2,13.4-3.3,27.1,0.4,40.2c4.1,14.7,14.6,27.4,28,35.8c13.4,8.4,31.3,8.1,47.5,8.2
		c17.2,0.1,33.3-0.1,45.9-11.2c11.6-10.2,17.8-24.9,20.1-39.7c2.2-14.8,0.9-29.8-0.5-44.6c-1.2-13.1-2.4-26.3-3.6-39.4
		c-1.1-11.7-2.2-23.5-5.9-34.7c-3.8-11.2-10.5-21.8-20.8-28.4c-5.8-3.7-12.6-6-19.5-7.4c-20.5-4.3-43.4-0.8-60,11.5
		c-15.8,11.7-23.1,29.7-21.4,48.2C256,242.8,246.9,264.4,243.9,284.3z"/>
	<path class="st5" d="M202.4,341.8c-8.1,12.8-7,29.7-0.9,43.6c6.1,13.8,16.5,25.3,26.8,36.4c1.8,2,3.7,4,6.3,5.1
		c1.8,0.7,3.8,0.9,5.8,1c9.8,0.6,19.6,1.2,29.4,1.8c-10.2-15.1-15.3-27.8-28.8-46.8c14.5-1.4,64.6-9.6,82.6-9
		c9.6,0.3,2.7-5.5,4.9-9.8c2.2-4.4,0.8-9.8-1.5-14.2c-3.6-6.9-9.3-12.4-15.5-17.1c-11.9-9.1-25.9-15.5-40.5-18.6
		c-7.1-1.5-15.3-3-22.6-2.2C241.3,312.7,208.5,332.2,202.4,341.8z"/>
	<path class="st5" d="M366.9,395.4c22.1,10.1,44.2,20.2,66.2,30.3c4.4,2,8.9,4.1,13.7,5.3c8.7,2.2,17.9,1.4,26.8,0.7
		c-20.7-31.6-82.7-103.4-87-123.2c-2.5-11.6-35.8,5-47.5,7.3c-11.7,2.3-22.6,10.6-25.9,22c-2.9,10.1-1,29.3,8.5,35.1
		C339.3,383.4,352.5,388.8,366.9,395.4z"/>
	<path class="st5" d="M242.5,291.7c43.3,6.3,87.4,7.6,131,3.9c4.6-0.4,9.5-1,12.9-4.1c0.6,13.5,3,26.9,7.2,39.7
		c-10.9-3.8-22.7,0.8-33.8,4.1c-37,11-76.5,7.2-114.9,3.4c-4.7-0.5-9.4-1-13.7-3c-1.1-0.5-2.2-1.2-2.8-2.2c-4.5-8.1,4.4-13,8.1-18.3
		C237.8,313.3,241.4,297.9,242.5,291.7z"/>
	<path class="st5" d="M219.5,421.7c-2.5,2.3-5.4,3.9-8,6.1c-1.1,0.9-2.2,2-2.4,3.4c-0.2,1.7,0.9,3.4,2.5,4.2c1.5,0.8,3.3,1,5,1.2
		c16.6,1.4,33.3,0.7,49.9-0.1c1.6-0.1,3.3-0.2,4.5-1.3c1.3-1.2,1.4-3.3,0.8-5c-0.6-1.7-1.8-3.1-2.8-4.5c-2.2-3-7.8-9.1-10.6-11.6
		c-6-5.5-11.1-2.4-18.9-4.6c-2.9-0.8-5.8-2.1-8.8-1.9C223.3,408.2,223.9,417.7,219.5,421.7z"/>
	<path class="st5" d="M458.9,411c4.2,2.6,37.2,14.4,39.8,16.6c1.1,0.9,2.1,2,2.3,3.5c0.2,1.7-1,3.4-2.5,4.2c-1.5,0.8-3.3,1-5,1.1
		c-16.6,1.2-33.3,0.1-49.9-0.9c-1.6-0.1-3.3-0.3-4.4-1.4c-1.3-1.2-1.3-3.3-0.7-5c0.6-1.7,1.8-3,2.9-4.5c2.2-3,3.9-6.4,6.7-8.8
		C454.1,410.4,453.7,407.9,458.9,411z"/>
	<path class="st5" d="M290.9,271.2c7.6-4.1,29.5-13,37.6-16c7.4-2.7,51.5-20.9,57.9-22.2c6.4-1.3,10.4-0.2,18.6,3.1
		c-48,15.7-91.1,37.2-135.3,61.6c-4.6,2.5-9.2,5.2-14.3,6.5c-4.1,1.1-12.1,0.3-10.1-6.1c1.1-3.6,7.8-5.8,10.8-7.5
		C267.6,283.9,279.2,277.4,290.9,271.2z"/>
	<path class="st5" d="M347.6,275.8c-7.3-4.6-28.5-15.1-36.3-18.6c-7.2-3.2-49.9-24.6-56.2-26.3c-6.3-1.8-10-2.2-19.1-0.8
		c46.7,19.1,88.6,46.1,130.9,73.7c4.4,2.9,8.8,5.8,13.8,7.5c4,1.4,12,1.1,10.5-5.3c-0.9-3.7-7.4-6.3-10.3-8.3
		C369.9,290.1,358.8,282.8,347.6,275.8z"/>
	<path class="st3" d="M190.9,65.4c0.9,29.2,11.7,58,30.2,80.5c3.4,4.1,7.3,8.2,12.4,9.7c4.1,1.2,8.6,0.5,12.6-1.1
		c11.2-4.4,18.7-15.9,20.1-27.9c1.6-13.8,5.4-29.9-6-39.2C242,72.6,211,65.3,190.9,65.4z"/>
	<path class="st6" d="M206.8,82.1c11.3,0.4,22.6,3.3,32.7,8.6c4.8,2.5,9.6,5.9,11.8,10.8c1.8,4.1,1.7,8.8,1.2,13.3
		c-0.4,3.5-1,7.2-3.1,10c-1.9,2.5-4.8,4.1-7.8,5.2c-4.1,1.6-8.7,2.4-13,1.3c-8.7-2.2-12.5-11-15.3-18.6
		C209.8,102.8,207.6,92.5,206.8,82.1z"/>
	<path class="st3" d="M443.8,62.6c-0.4,29.2-10.8,58.1-29,81c-3.3,4.2-7.2,8.3-12.3,9.9c-4.1,1.3-8.6,0.7-12.6-0.9
		c-11.3-4.3-19-15.7-20.5-27.6c-1.8-13.8-7.8-29,3.4-38.6C392.9,69,423.7,62.8,443.8,62.6z"/>
	<path class="st6" d="M427.2,80.1c-1.7,14.2-7.1,27.9-15.4,39.5c-1.1,1.6-2.3,3.1-4,4.1c-2.4,1.5-5.5,1.4-8.3,1.3
		c-3.2-0.1-6.4-0.4-9.3-1.6c-4.8-2.1-7.9-6.6-10.8-10.9c-0.9-1.3-1.8-2.6-2.1-4.1c-2-9.2,10.4-16.7,16.9-20.1
		C404.4,83,415.9,80.8,427.2,80.1z"/>
	<path class="st6" d="M408.6,111.3c-11.5-13.3-27.2-22.3-43.8-28c-15-5.1-76.3-6.7-91.4-2.4c-16.9,4.8-33.1,13-45.2,25.7
		c-15.4,16-23.4,38.9-21.4,61.1c2,22.2,14.1,43.2,32.1,56.2c13.6,9.8,30,14.9,46.4,18c9.8,1.9,49.6,2.9,59.4,1.5
		c16.6-2.3,33.2-6.6,47.2-15.6c18.7-12,31.8-32.4,35-54.5C430,151.4,423.1,128.1,408.6,111.3z"/>
	<path class="st3" d="M407.3,109.8c-11.5-13.3-25.9-20.8-42.5-26.5c-6.2-2.1-29.3-3.9-45.6-4.6c0,0,0-0.1,0-0.1
		c-16.6-0.2-39.7,0.4-46.3,2.3c-16.9,4.8-33.1,13-45.2,25.7c-7,7.3-12.5,16-16.2,25.5c0,0,0,0,0,0c8.3,1.4,17.4-1,25.9-0.4
		c9.6,0.7,19.1,2.8,28.3,6.1c6.4,2.3,12.6,5.3,18,9.7c11.7,9.7,18.3,25.4,22.4,41.2c0.8,0,2.2,0.1,3.9,0.1c0,0,0,0,0,0
		c0.9,0,2.9,0.1,5.1,0.1c2.2,0.1,4.2,0.1,5.1,0.2c0,0,0,0,0,0c1.7,0,3.2,0.1,3.9,0.1c4.9-15.6,12.3-31,24.5-40
		c5.6-4.2,12-6.8,18.5-8.8c9.3-2.8,18.9-4.4,28.6-4.6c8.5-0.2,27.6,1.3,27.6,1.3C420.1,127.5,413.9,117.5,407.3,109.8z"/>
	<path class="st7" d="M307.2,184.5c-1,0.1-2,0.2-2.8,0.7s-1.6,1.6-1.6,2.7c0,1.5,1.2,2.6,2.3,3.1c1.2,0.5,2.4,0.7,3.5,1.5
		c1.3,1,2.1,2.7,3.1,3.9c1.1,1.3,2.9,2.2,4.1,1.1c0.6-0.5,0.9-1.3,1.4-2c1.3-1.6,3.5-1.4,5.3-2c1.1-0.4,2.2-1.1,2.9-2.2
		c0.7-1.1,0.8-2.7,0.3-3.9c-0.7-1.6-2.4-2.1-3.9-2.4C317.1,184.3,312,184.2,307.2,184.5z"/>
	<path class="st8" d="M221.1,372.8c4.3,5.2,8.6,10.4,12.9,15.7c11.6,14.1,23.3,28.2,36.9,40.4c-9.6-14.5-14.3-32.2-26-45.1
		c18.7-1,25.7-0.2,40.2-1.8c6.9-0.7,32.2-6.7,37.6-8.7C320.1,372.3,247.2,378.4,221.1,372.8z"/>
	<path class="st8" d="M382.9,327.1c23.2,28,47.9,54.6,73.2,80.8c-18.5-23.8-35.7-48.7-51.6-74.3c-8.4-13.6-16.2-26.1-18.1-42
		c-0.8,1.7-16.1,5.4-36.8,5.6c5.9,3.7,12.2,7.2,17.4,12.2C372.8,314.8,377.4,321.3,382.9,327.1z"/>
	<path class="st3" d="M371.9,309c-1,0.6-2.1,1.2-2.6,2.3c-0.7,1.7,0.9,3.8,2.7,3.6c-1.5,1.2-1.9,3.6-0.9,5.3c1,1.7,3.3,2.4,5.1,1.6
		c-1.9,0.7-1.7,3.8,0,4.9c1.7,1.1,3.9,0.9,5.9,0.5c5.2-0.9,10.5-2,15.4-4.2c2.6-1.2,5.1-2.7,7.5-4.1c2.7-1.6,5.8-3.8,6.1-6.9
		c0.3-2.6-1.6-5.1-3.9-6.4c-2.3-1.3-5-1.6-7.6-2C389.1,302.3,381.3,303.7,371.9,309z"/>
	<path class="st4" d="M394.8,134.8c5.6,0.9,11.1,2.2,16.4,4.1c4.1,1.4,8.1,3.1,11.3,5.9c3.3,2.8,5.7,6.8,5.8,11.1
		c2.1-12.6-4.4-25-11.9-35.4c-7.4-10.2-16-19.5-26.5-26.4c-9.2-6.1-21.6-11.6-32.9-11C378.9,90.8,395.1,110.7,394.8,134.8z"/>
	<path class="st4" d="M242.2,277.4c0.7,0.2,1.4,0.4,1.7,1c0.3,0.5,0.2,1,0.2,1.6c-0.4,4-0.7,7.9-1.1,11.9c2.4-5.7,4.9-11.5,7.3-17.2
		c-6.5-2.6-13-5.2-19.5-7.8c-5.2-2.1-10.4-4.2-15.5-6.6c-13.1-6.3-25-14.8-36.5-23.7c7.7,5.9,14.1,13.3,21.8,19.3
		c7.9,6.2,16.5,11.4,25.6,15.5C231.4,273.9,236.7,275.8,242.2,277.4z"/>
	<path class="st4" d="M379.2,264c9.8-1.6,20.2,1.6,27.4,8.4c3.6,3.4,6.6,8.3,5.6,13.2c-0.6,3.2-2.9,5.9-5.4,8
		c3.6-3,4.6-8.7,2.2-12.6c-2.1-3.6-6.3-5.4-10.3-6.4c-3.9-0.9-7.9-1.3-11.9-1.1c-0.4,0-0.8,0.1-1,0.3c-0.3,0.3-0.3,0.7-0.2,1.2
		c0.6,7.2,0.1,7.9,0.7,15.2C384.9,287.7,379.7,264,379.2,264z"/>
	<path class="st9" d="M396.2,154.9c-1.7,0.8-3.2,2.4-3.8,4.2c-11.4,37.6-31.5,59.2-73.8,65.9c-16.6,2.7-53.6,4.7-91.3-11.2
		c3.5,3.8,7.4,7.2,11.6,10.3c13.6,9.8,30,14.9,46.4,18c9.8,1.9,49.6,2.9,59.4,1.5c16.6-2.3,33.2-6.6,47.2-15.6
		c18.7-12,31.8-32.4,35-54.5c0.6-3.9,0.8-7.7,0.7-11.6c-8.2-5-17.9-7.5-27.6-7.6C398.7,154.4,397.4,154.4,396.2,154.9z"/>
	<path class="st5" d="M424.3,135.1c7.3,5.9,8.6,45-1.6,62.4c-22.3-21.9-49-35-79.2-43.3c-11.2-3.1-22.8-5.4-34.4-4.9
		c-9.3,0.4-18.5,2.7-27.3,5.9c-21.4,7.7-40.8,20.6-56.1,37.4c-3.1,3.4-6.1,7-7.7,11.4c0.4-1-5.4-9.1-6.1-10.5
		c-1.8-3.7-3.2-7.4-4.4-11.3c-2.4-7.8-3.6-15.9-3.7-24c0-8.2,1-16.8,3.7-24.5c1.5-4.2,4.6-3.6,8.8-4.1c4.9-0.6,49.4-2.8,103.6-2.6
		C369.7,127.2,423,134,424.3,135.1z"/>
	<path class="st6" d="M241.8,140.1c-5,2.5-9.4,7-10.3,12.5c-0.9,5.5,2.7,11.8,8.3,12.7c3.9,0.6,7.7-1.3,11.2-3.2
		c6.8-3.7,13.6-7.4,20.3-11.1c1.2-0.7,2.5-1.4,3.4-2.5c2.7-3.4,0.3-8.7-3.6-10.6c-4.2-2.1-9.6-1.3-14.1-1.3
		C252,136.6,246.3,137.9,241.8,140.1z"/>
	<path class="st7" d="M245.1,146.7c-1.1,2.6-0.5,6,1.7,7.8c0.8,0.7,1.8,1.1,2.9,1.4c3.3,0.9,7.2-0.2,9.3-2.9c2.1-2.7,1.9-7-0.6-9.4
		C254,139.7,247.3,141.3,245.1,146.7z"/>
	<path class="st10" d="M247.6,147.7c-0.1,1,0.1,2,0.7,2.7c0.7,0.7,1.9,0.9,2.6,0.3c0.8-0.6,0.9-1.7,1.4-2.5c0.5-0.7,1.4-1.1,1.8-1.9
		c0.4-0.8,0.1-1.7-0.5-2.3C251.5,142.3,247.9,145.6,247.6,147.7z"/>
	<path class="st8" d="M423.8,135.4c-0.7-0.6-14.8-2.6-35.1-4.5c0.9,1,1.7,1.9,2.3,3c2,3.8,2.8,8.3,2.1,12.6c-0.7,4.7-3,9.4-7,11.9
		c-4.2,2.7-9.5,2.7-14.4,2.3c-4.7-0.4-9.4-1.1-14-2.1c-1.3-0.3-2.7-0.6-4-0.9c25.8,8.4,48.9,20.8,68.5,40.1
		C432.5,180.4,431.1,141.3,423.8,135.4z"/>
	<path class="st6" d="M398.1,141.6c5,2.5,9.3,7.1,10.1,12.7c0.8,5.6-2.9,11.8-8.4,12.6c-3.9,0.6-7.7-1.4-11.1-3.4
		c-6.7-3.8-13.5-7.6-20.2-11.4c-1.2-0.7-2.5-1.4-3.4-2.5c-2.6-3.4-0.2-8.7,3.7-10.6c4.2-2,9.6-1.2,14.1-1.1
		C388,138,393.6,139.4,398.1,141.6z"/>
	<path class="st7" d="M394.7,148.2c1,2.6,0.4,6-1.8,7.8c-0.8,0.7-1.8,1.1-2.9,1.4c-3.3,0.8-7.2-0.3-9.2-3c-2-2.8-1.9-7.1,0.7-9.3
		C385.9,141,392.6,142.8,394.7,148.2z"/>
	<path class="st10" d="M392.2,149.1c0.1,1-0.1,2-0.8,2.7c-0.7,0.7-1.9,0.9-2.6,0.3c-0.8-0.6-0.8-1.7-1.4-2.5
		c-0.5-0.7-1.4-1.1-1.7-1.9c-0.4-0.8-0.1-1.8,0.5-2.3C388.4,143.7,391.9,147,392.2,149.1z"/>
	<path class="st11" d="M316.7,215.5c7.9,0,16.7-3,22-8.9c-3.2,6.7-8.1,12.6-14.3,16.9c-3.4,2.4-7.2,4.2-11.3,4.7
		c-4.1,0.5-8.5-0.6-11.5-3.6c-1.9-1.9-3.1-4.4-4-6.9c-0.8-2.2-2.6-10.1-2.6-10.1S301.8,215.4,316.7,215.5z"/>
	<path class="st6" d="M149.4,356.5c3.6-5.4,7.9-10.3,12.8-14.6c-6.2-1.5-12.5-3.1-18.7-4.6c-19.9,11.3-39.7,22.9-62.1,24
		c23.3,16.6,50.3,27.7,78.4,32.6c-2.1-2.8-4.4-5.3-7-7.5c5.3-0.1,10.7-0.2,16-0.2c-3.9-5.4-8.8-10-14.4-13.5
		c5.2-0.8,10.5-1.8,15.7-2.9C164.1,364.1,157.1,359.6,149.4,356.5z"/>
	<path class="st0" d="M345.1,317.1c-0.2,8.6-13.1,15.3-28.8,14.8c-15.7-0.4-28.2-7.7-28-16.3c0.2-8.6,13.1-15.3,28.8-14.9
		C332.8,301.2,345.4,308.5,345.1,317.1z"/>
	<path class="st12" d="M246.8,103.8c-2.9,2.4-5.7,5.1-7.2,8.5c-1.5,3.4-1.4,7.9,1.2,10.6c3.2,3.3,8.9,2.8,12.7,0.2
		c3.9-2.5,6.4-6.5,9.3-10.1c6.7-8.6,15.6-15.6,25.5-20.1c1.1-0.5,2.3-1.1,3.1-2.1c0.8-1,0.9-2.6-0.2-3.4c-0.5-0.4-1.2-0.5-1.8-0.5
		C274,85.7,258.4,94.1,246.8,103.8z"/>
	<path class="st13" d="M301.7,306.6c-1.8,1.2-3.5,2.7-4.5,4.6c-0.9,2-0.9,4.5,0.4,6.2c1.5,1.9,4.4,2.3,6.4,0.9
		c1.8-1.3,2.5-3.5,3.6-5.4c2-3.3,5.9-5.3,9.7-5.3c1.1,0,2.2,0.2,3.3,0c1.1-0.2,2.2-1,2.3-2.1c0.1-1-0.5-1.9-1.3-2.4
		c-0.8-0.5-1.8-0.6-2.8-0.7C312.7,302,306.8,303.2,301.7,306.6z"/>
</g>
</svg>
