<?xml version="1.0" encoding="utf-8"?>
<!-- Generator: Adobe Illustrator 23.0.3, SVG Export Plug-In . SVG Version: 6.00 Build 0)  -->
<svg version="1.1" id="Layer_1" xmlns="http://www.w3.org/2000/svg" xmlns:xlink="http://www.w3.org/1999/xlink" x="0px" y="0px"
	 viewBox="0 0 500 500" style="enable-background:new 0 0 500 500;" xml:space="preserve">
<style type="text/css">
	.st0{fill:#C54F33;}
	.st1{fill:#B0432F;}
	.st2{fill:#6E5849;}
	.st3{fill:#FCB33D;}
	.st4{fill:#E29E39;}
	.st5{fill:#A5846C;}
	.st6{fill:#353438;}
	.st7{fill:#171717;}
	.st8{fill:#FFFFFF;}
	.st9{fill:#EFCC24;}
	.st10{opacity:0.27;fill:#FFFFFF;}
</style>
<g>
	<path class="st0" d="M202.4,225.6c3.3,3.3,8,4.8,12.5,6c89.5,24.6,187.5,23.6,273.3-11.9c-11.3,22.5-29.5,41.4-51.5,53.5
		c-7.9,4.3-16.7,8.1-22,15.4c-9,12.3-5.3,30.1-12.1,43.7c-5.3,10.6-16.2,17.3-27.2,21.7c-11,4.4-22.7,7.3-33,13.3
		c-8.9,5.1-21.7,26.9-29.8,33.1c-25.4,19.3-53.1,13.8-84.8,10c-6.1-0.7-12.5-2.1-17.1-6.3c-4.5-4.1-6.4-10.1-8.6-15.8
		c-9.7-24.3-27.8-44.1-42.3-65.9c-14.5-21.8-25.8-48.4-19-73.7c1.9-7.1,5.3-14,11-18.7c9.2-7.6,23.7-7.6,32.9-0.1L202.4,225.6z"/>
	<g>
		<path class="st1" d="M312.4,400.4c7.4-5.7,18.7-24.2,27.3-31.3c-21.5-2.5-43-8.2-63.5-15.2c-41.8-14.2-81.9-33.4-119.2-57
			c-0.5,0.3-1.1,0.7-1.5,1c-2.4,1.8-4.6,3.8-6.6,6c3.2,6.5,6.8,12.7,10.7,18.6c14.5,21.8,32.7,41.6,42.3,65.9
			c2.2,5.6,4.1,11.7,8.6,15.8c4.5,4.2,10.9,5.5,17.1,6.3C259.3,414.2,287,419.7,312.4,400.4z"/>
		<path class="st1" d="M161.5,295.9l0.9,0.4C162.1,296.1,161.8,296,161.5,295.9z"/>
		<path class="st1" d="M161.5,295.9l-19.5-9.2c0,0.1,0.1,0.3,0.1,0.4c4.9,3.3,9.8,6.6,14.8,9.7C158.4,296,160.1,295.5,161.5,295.9z"
			/>
		<path class="st1" d="M306.6,261.6c34.3-1.7,68.6-3.5,102.8-5.2c18.4-0.9,36.9-1.9,55.2-4.3c9.5-9.5,17.5-20.4,23.5-32.4
			c-66.8,27.6-140.8,34.4-212.6,24.4c-6.8,1.3-13.7,2.5-20.6,3.5C266.4,262.2,288.1,262.6,306.6,261.6z"/>
		<path class="st1" d="M357.9,293.2c-13.8-1.6-28-4.5-41.2-0.3c8.8,14.1,26,20.1,41.9,25.2c14.6,4.6,29.3,9.3,43.9,13.9
			c6-12.4,3.6-28,9.8-40C394.4,294.9,376,295.3,357.9,293.2z"/>
	</g>
	<path class="st2" d="M214.6,212.3c33.9-25,75.6-39.4,117.8-40.7c-24.9,15.2-48.3,32.6-70,52c13.6-7.7,28.1-13.9,43.1-18.5
		c-13.2,13.7-24.9,28.8-34.8,45.1c21.1-16.4,46.8-27,73.4-30.2c-23.9,20.9-42.9,47.4-55,76.8c13-13.3,28.4-24.2,45.3-32
		c-20,20.6-37,44.4-47.2,71.2c-10.3,26.8-13.5,56.6-6.5,84.5c-8.6-13.2-24-20.2-38.4-26.6c-26.3-11.8-52.9-24.8-73.1-45.4
		c-12.9-13.1-22.9-29.1-29.1-46.4c-3.1-8.8-5.3-18.2-4.8-27.5c1.1-20.2,14.5-38.1,31.1-49.6c16.6-11.5,36.3-17.6,55.7-23.4
		c-0.8,0.6-1.7,1.2-2.5,1.8L214.6,212.3z"/>
	<path class="st3" d="M39.1,450.3c-3.4,2.1-7.1,3.9-9.9,6.6c-0.4,0.4-0.7,0.8-0.8,1.3c-0.1,0.6,0.3,1.3,0.7,1.7
		c2.7,2.9,7,3.5,11,3.8c6.2,0.6,12.5,1.1,18.7,0.9c4.9-0.2,10.3-1.2,13.1-5.2c2.8-3.9,2.1-9.1,1.3-13.8c-0.6-3.5-1.3-7.2-3.8-9.7
		C58.7,425.2,46.9,445.5,39.1,450.3z"/>
	<path class="st3" d="M336.4,403.8c4-0.1,8,0.3,11.9-0.6c0.5-0.1,1-0.3,1.3-0.7c0.4-0.5,0.4-1.2,0.2-1.9c-0.8-3.9-4.3-6.5-7.5-8.9
		c-5.1-3.7-10.2-7.3-15.7-10.3c-4.3-2.3-9.5-4.2-13.9-2.2c-4.3,1.9-6.4,6.8-8.1,11.2c-1.3,3.3-2.5,6.8-1.7,10.2
		C306.8,415.5,327.3,404,336.4,403.8z"/>
	<path class="st3" d="M239.8,253.5c4.6,0.2,9.4,0.6,13.6,2.7c5.4,2.7,9,8.1,11.9,13.3c7.8,14,12.8,30.7,8,45.9c-1,3-2.6,6.2-5.6,7.3
		c-4.9,1.7-9.4-3.5-11.6-8.2c-2.5-5.4-4.2-11.2-5-17.1c-0.3-2-0.5-4.1-1.9-5.5c-2.2-2.2-5.9-1.3-8.9-0.3
		c-11.1,3.9-22.2,7.8-33.3,11.7c-6.5,2.3-13.1,4.6-20,5c-6.9,0.4-14.2-1.3-19.2-6.1c-4.8-4.7-6.7-11.6-7.4-18.2
		c-1.8-17.5,8.9-27.2,25.4-27.7C203.7,255.8,221.5,252.7,239.8,253.5z"/>
	<path class="st4" d="M79,335c-4.2,2-8.6,3.8-13.3,3.9c-6.1,0.1-11.7-3-16.7-6.4c-13.3-8.8-25.5-21.4-28.2-37.1
		c-0.5-3.1-0.6-6.8,1.7-9c3.6-3.8,10-1.3,14.1,1.9c4.7,3.6,8.9,8,12.3,12.8c1.1,1.6,2.4,3.4,4.2,4c3,0.9,5.9-1.6,8-3.9
		c8.1-8.6,16.1-17.2,24.2-25.7c4.7-5,9.5-10.1,15.5-13.7c5.9-3.5,13.2-5.4,19.8-3.4c6.4,1.9,11.3,7.2,15,12.7
		c9.6,14.7,4.7,28.2-9.8,36.3C110,316.4,95.6,327.3,79,335z"/>
	<path class="st3" d="M73.9,382.7c-6.3,0.9-12.9,2.3-17.7,6.6c-5.3,4.7-7.4,12.1-7.9,19.2c-0.6,9.5,1.3,18.9,3.1,28.2
		c1,5,2,10.1,4.8,14.5c2.7,4.3,7.6,7.7,12.7,7.1c1.5-0.2,3.1-0.8,3.7-2.1c0.2-0.5,0.3-1,0.3-1.6c1.1-11.6,2.2-23.1,3.3-34.7
		c33.3,0,81.2-0.9,118.9-1.7c4.8-0.1-10.5-7.8-9-12.3c0.8-2.5,0.6-5.2-0.2-7.7c-1.9-6.1-6.8-11-12.4-14.1
		c-5.6-3.1-11.9-4.6-18.2-5.8c-13.8-2.5-24.6-10.5-38.1-6.1C104.7,376.4,87,380.9,73.9,382.7z"/>
	<path class="st3" d="M267,440.7c5.6,3.1,11.7,5.9,18.1,5.3c7.1-0.6,13.2-5.3,17.8-10.7c6.2-7.2,10.3-15.9,14.4-24.5
		c2.2-4.6,4.4-9.3,4.8-14.4c0.4-5.1-1.5-10.7-5.9-13.3c-1.3-0.8-2.9-1.2-4.2-0.5c-0.5,0.3-0.8,0.7-1.2,1.1
		c-7.8,8.6-15.6,17.2-23.4,25.8c-26.7-20-50.6-45.9-82.6-55.2c-4.6-1.3-9.9-2.2-13.8,0.5c-2.1,1.5-3.6,3.8-4.4,6.3
		c-2.1,6-1.1,12.8,1.5,18.7c2.6,5.8,6.8,10.8,11.1,15.5C208.8,405.7,255.4,434.4,267,440.7z"/>
	<path class="st2" d="M66.8,111.3c0.6,8.3,2.6,16.5,5.8,24.1c5-33.5,21.2-65.1,45.4-88.8c-2.9,7.7-5,15.7-6.2,23.9
		c12.7-13.3,27-25,42.7-34.6c-11.8,20.4-19.9,42.8-23.8,66C149.5,71.8,178,47.7,211,34.3c-19.1,19.9-34,43.9-43.5,69.8
		c21.9-25.7,49.1-46.9,79.4-61.7c-19,18.3-35.3,39.4-48,62.5c35.5-29,79.7-47.2,125.4-51.4c-36.2,16.6-66.7,45.4-85.5,80.5
		c11.1-11.1,24.1-20.2,38.3-26.9c-15.8,13.9-28,32-35,51.8c18.3-22.1,43.6-38.3,71.4-45.7c-37.2,29.1-67.7,66.8-88.2,109.4
		c16.3-21.1,39.5-36.8,65.2-44c-31.6,24-62.7,48.5-93.5,73.5c-7,5.7-14.3,11.5-22.9,14.2c-9.3,2.8-19.5,1.6-28.9-1.1
		c-13-3.7-25-10.1-36.3-17.4c-8.5-5.4-20-10.7-24.8-19.9c-11.8-22.6-16.5-48.3-17.7-73.5c-0.4-7.2-0.5-14.3-0.4-21.5
		C66,125.7,67.3,118.2,66.8,111.3z"/>
	<path class="st5" d="M80.7,197.7c-1.2,19.6,2.7,39.9,13.7,56.2s29.9,27.7,49.5,27.1c10-0.3,19.8-3.7,28.6-8.5
		c29.2-15.7,49-47.8,49.9-81c0.2-8-0.7-16.4-4.7-23.3c-3.9-6.6-10.2-11.3-16.8-15.1c-30.6-17.5-89.7-21.8-111.1,12.9
		C83.9,175.4,81.4,186.8,80.7,197.7z"/>
	<path class="st3" d="M197,226.7c6,1.9,12.8,4.7,14.7,10.7c23.4-35.9,22.7-85.9-1.7-121.1c2.1,6.9,3.1,14,3,21.2
		c-33.4-15.6-72.7-18.4-108-7.7c2.6-5.1,5.7-9.9,9.2-14.4c-10.6,5.9-20.5,19.7-26.2,30.4C77.6,165.4,73,210,78.4,213.1
		c0,0,12.6-0.8,16.1-0.9c7-0.2,14.1-0.1,21.1,0.2C143.2,213.7,170.6,218.5,197,226.7z"/>
	<path class="st6" d="M107.6,220.8c1.6,1.7,2.9,4.1,5.1,4.6c2.5,0.6,4.8-1.3,7.1-2.2c2.3-0.9,4.8-0.8,7.2-0.9c2.4,0,5-0.2,7.1-1.4
		c2.1-1.2,3.8-3.6,3.2-6c-0.7-3-4.2-4.2-7.2-4.8c-5.6-1.2-11.3-2-17.1-2.1c-3.4-0.1-7.4-0.9-10.7-0.2c-2.6,0.6-5.9,3.2-5.3,6.3
		C97.7,217.7,105,218,107.6,220.8z"/>
	<path class="st5" d="M111,177.3c-0.9,1.3-2.1,2.1-3.3,2.9c-3.3,2.3-6.7,4.6-10,6.9c-1.8,1.3-3.7,2.6-5.8,3.1c-2,0.5-4.3,0.1-6-1.7
		c-1.9-2-2.7-5.3-3-8.6c-0.2-2.4-0.1-4.8,0.5-7c1.6-5.5,6.2-7.6,10.4-8.5c4-0.9,11.1-3.4,15.1-1.4C113,165.1,113.9,173.2,111,177.3z
		"/>
	<g>
		<path class="st7" d="M91.4,171.4c-1.2,2.2-1,5.2,0.9,6.9c0.8,0.7,1.8,1.2,2.9,1.6c1.4,0.4,2.8,0.7,4.2,0.3
			c0.9-0.3,1.8-0.8,2.5-1.4c1.5-1.3,2.6-2.9,2.9-4.9c0.3-1.9-0.5-4-2.1-5.1C99.2,166.6,93.5,167.8,91.4,171.4z"/>
		<path class="st8" d="M94.8,170.8c-0.8,0.7-1.6,1.7-1.3,2.7c0.3,0.8,1.3,1.2,2,0.9c0.5-0.2,0.9-0.8,1.3-1.2
			c0.8-0.7,2.1-0.9,2.7-1.9c0.1-0.2,0.1-0.3,0.1-0.5c0-0.5-0.6-0.8-1.1-0.8C97.1,169.9,96,169.8,94.8,170.8z"/>
	</g>
	<path class="st3" d="M88.1,300.5c-0.5,20.9,3.1,41.7,8.4,62.1c2.4,9.3,5.3,18.7,11,26.9c9,13,24.6,21.8,41.4,26
		c16.8,4.2,34.6,4.1,51.9,2.1c10.9-1.3,21.9-3.3,31.8-7.5c9.9-4.2,41-8.4,34.3-15.7c-32-34.9-60.1-99.5-64.8-109.9
		c-4.1-9-4-19.4-7-28.8c-21.8,6.5-48.6,9.3-71.4,6.4c-7.1-0.9-14.3-2.3-20.6-5.2c-6.1-2.8-7.9-6.8-9.1,0.2
		C91.5,271.6,88.4,285.9,88.1,300.5z"/>
	<path class="st5" d="M250.1,322.1c-1.1,0.9-2.3,1.7-3.2,2.9c-0.9,1.1-1.4,2.8-0.7,4c1,1.8,3.6,1.8,5.6,1.5c-0.5,2-0.8,4-0.7,6
		c0,1.1,0.2,2.3,0.8,3.2c0.9,1.2,2.5,1.7,4,1.5c1.5-0.2,2.8-1,4-2c-0.5,2,2,3.7,4,3.2c2-0.5,3.4-2.2,4.6-3.8
		c0.2,0.6,1.1,0.7,1.6,0.3c0.5-0.3,0.8-1,1-1.5c3.8-10.5,5.2-21.8,4-32.9c-3.4,1.6-6.9,2.8-10.5,3.6c-1.8,0.4-3.7,0.7-5.5,0.9
		c-1.2,0.1-4-0.3-5,0.3c-1.8,1.2-0.3,3.3-0.1,5.1C254.2,317.4,252.3,320.1,250.1,322.1z"/>
	<path class="st5" d="M37.8,279.7c0.5-1.4,1.1-2.7,1.4-4.1c0.2-1.4-0.2-3.1-1.4-3.8c-1.8-1.1-4,0.2-5.6,1.5c-0.5-2-1.3-3.8-2.4-5.6
		c-0.6-1-1.3-1.9-2.3-2.4c-1.4-0.6-3-0.2-4.2,0.7c-1.2,0.9-1.9,2.3-2.4,3.7c-0.6-2-3.5-2.2-5-0.8c-1.5,1.4-1.8,3.6-2,5.6
		c-0.5-0.4-1.3,0-1.5,0.5c-0.3,0.6-0.2,1.2-0.1,1.8c1.9,11,6.4,21.5,13,30.5c2.1-3.1,4.6-5.9,7.3-8.4c1.4-1.3,2.8-2.4,4.3-3.5
		c1-0.7,3.6-1.7,4.1-2.8c1-1.9-1.4-3-2.4-4.5C36.6,285.7,36.9,282.5,37.8,279.7z"/>
	<path class="st6" d="M110.4,235.2c11.4,2.9,24.6,1,33.3-7c-4.6,8.4-9.6,17-17.8,22c-2.1,1.3-4.4,2.3-6.8,2.4c-3.1,0.2-6-1-8.8-2.3
		c-2.4-1.1-4.7-2.4-6.6-4.2c-5.8-5.4-7.2-14.3-7.7-21.8C99,230.3,103.8,233.5,110.4,235.2z"/>
	<path class="st4" d="M210,116.3c2.1,6.9,3.1,14,3,21.2c-15.5-7.2-32.3-11.7-49.3-13.3c10.6,6.9,17.8,19.2,19.2,31.9
		c1.8,16.5-5,33.3-15.9,45.8c-3.7,4.2-7.9,8.1-12.9,10.6c-2.6,1.3-5.2,2.2-8,2.8c17.3,2.4,34.3,6.2,51,11.4
		c6,1.9,12.8,4.7,14.7,10.7C235.1,201.5,234.4,151.5,210,116.3z"/>
	<path class="st5" d="M150.4,182.3c1.4,1.7,3.2,2.9,5,4c5.1,3.3,10.3,6.5,15.4,9.8c2.8,1.8,5.7,3.6,8.9,4.5c3.2,0.9,6.8,0.7,9.6-1.3
		c3.1-2.2,4.7-6.2,5.4-10.2c0.5-2.9,0.5-6-0.4-8.7c-2.2-6.9-9.4-10.1-15.9-11.8c-6.3-1.6-17.4-5.6-23.9-3.6
		C148,167.1,146.1,176.9,150.4,182.3z"/>
	<g>
		<path class="st7" d="M165.2,177.8c-1.2,2.2-1,5.2,0.9,6.9c0.8,0.7,1.8,1.2,2.9,1.6c1.4,0.4,2.8,0.7,4.2,0.3
			c0.9-0.3,1.8-0.8,2.5-1.4c1.5-1.3,2.6-2.9,2.9-4.9c0.3-1.9-0.5-4-2.1-5.1C173,173,167.3,174.1,165.2,177.8z"/>
		<path class="st8" d="M168.6,177.2c-0.8,0.7-1.6,1.7-1.3,2.7c0.3,0.8,1.3,1.2,2,0.9c0.5-0.2,0.9-0.8,1.3-1.2
			c0.8-0.7,2.1-0.9,2.7-1.9c0.1-0.2,0.1-0.3,0.1-0.5c0-0.5-0.6-0.8-1.1-0.8C170.9,176.3,169.8,176.2,168.6,177.2z"/>
	</g>
	<path class="st4" d="M256.2,382.5c-28.3-24.3-46.2-58.3-63.2-91.5c9.6,2.2,19.7,1,29.1-1.9c9.4-2.8,18.3-7.2,27.1-11.6
		c2.8,10.8,5.5,21.6,8.3,32.3c-1.9,0.3-3.8,0.6-5.7,0.8c-1.3-5.9-2.7-11.9-4-17.8c-11.4,4.9-23.4,8.4-35.6,10.2
		c13.5,15.8,21.3,35.5,31,53.9c6.2,11.9,13.3,23.3,21.2,34.1c-4.3-3.7-8.1-8.1-11.1-13L256.2,382.5z"/>
	<path class="st4" d="M65.3,459.7c2.9-5.7,3.3-12.3,3.5-18.8c0.3-11.7,0-23.7-4.1-34.6c28.2,11.7,59.6,12.2,90.2,12.5
		c-19.5,3.3-39,3-58.7,2.2c-6-0.2-12.7-0.5-18.4-0.4c-0.4,0-0.7,0.2-1,0.4c-0.2,0.3-0.3,0.7-0.3,1.1c-0.6,10.9-1.5,21.8-2.7,32.7
		c-0.3,2.4-0.3,9.4-2.9,10.4c-4.1,1.5-10.4-0.3-18.1-0.5C58.1,464.4,62.4,465.5,65.3,459.7z"/>
	<path class="st4" d="M298.4,429.8c7.1-8.3,11.1-18.9,14-29.4c4.9,1.8,10.3,1.3,15.4,0.9c3.1-0.3,6.2-0.6,9.3-0.9
		c1.6-0.2,3.2-0.3,4.7-1c1.5-0.7,2.7-2,3-3.6c0.2-1.6-0.9-3.4-2.5-3.5c2,1,4,2.2,5.9,3.5c2,1.4,4.1,3.5,3.8,5.9
		c-0.2,1.8-1.7,3.2-3.4,3.8c-1.7,0.7-3.5,0.7-5.3,0.7c-7.8,0.2-15.6,0.6-23.3,1.1c-2.3,5.1-4.8,10.2-7.4,15.2
		c-3.4,6.5-7.2,13-12.7,17.9c-5.5,4.9-13,8.1-20.2,6.8c-5.2-0.9-9.7-4-14.1-7C276,447.6,291.5,437.9,298.4,429.8z"/>
	<g>
		<path class="st0" d="M253.1,311c3.9-0.4,7.9-0.3,11.7-1c3.9-0.7,7.5-2.2,10.8-4.4c3-1.9-1.9-5.1-2.6-2c-0.1,0.2-0.1,0.4-0.2,0.6
			c-0.1,0.4,0.1,0.8,0.4,1c0.2,0.1,0.4,0.3,0.6,0.4c0-1,0-2.1,0-3.1c-3.3,2.2-6.9,3.8-10.8,4.4c-3.4,0.6-7.5-0.2-10.6,1.6
			C251.5,309.2,251.8,311.2,253.1,311L253.1,311z"/>
	</g>
	<g>
		<path class="st0" d="M251.5,303.6c3.6,0.9,8.1-0.1,11.7-1c4.1-1,8.3-2.3,11.9-4.6c0.9-0.6-0.1-1.9-0.9-1.2
			c-0.2,0.2-0.5,0.4-0.7,0.6c-0.2,0.2,0,0.5,0.2,0.5c0.4,0,0.7,0.1,1.1,0.1c-0.1-0.5-0.2-0.9-0.4-1.4c-3.8,1.7-7.5,3.4-11.5,4.4
			c-3.7,1-7.7,0.9-11.3,2C251.3,303.3,251.3,303.6,251.5,303.6L251.5,303.6z"/>
	</g>
	<g>
		<path class="st0" d="M26.4,309.7c-0.2-0.8,3-3.8,3.6-4.4c1.2-1.3,2.5-2.6,3.8-3.9c2.8-2.5,6-4.6,9.3-6.4c-0.9-0.7-1.8-1.3-2.6-2
			c-0.1,0.3-0.1,0.5-0.2,0.8c-0.3,1,0.6,1.8,1.6,1.6c0.3-0.1,0.6-0.1,0.8-0.2c2.5-0.5,1-4.6-1.4-3.3c-4.2,2.3-8,5.4-11.2,9
			c-1.5,1.7-2.8,3.4-4,5.3c-0.7,1.1-1.6,2.4-0.9,3.7c0.1,0.2,0.4,0.4,0.7,0.3c0.1,0,0.2,0,0.2-0.1C26.3,310.1,26.4,309.8,26.4,309.7
			L26.4,309.7z"/>
	</g>
	<g>
		<path class="st0" d="M29.9,312.2c2.6-2.9,5.5-5.4,8.7-7.7c1.5-1,3-2,4.5-2.8c1.3-0.7,3.1-0.8,3.9-2.3c-0.5,0.3-1.1,0.6-1.6,0.9
			c0.4,0,0.6-0.1,1-0.3c1.1-0.7,1.2-2.1,0.4-3c-0.1-0.1-0.1-0.1-0.2-0.2c-0.8-0.9-2.4-0.8-3.2,0c-1.3,1.3-3.2,2.2-4.6,3.3
			c-1.3,1-2.5,2.1-3.6,3.3c-2.3,2.4-4.1,5.3-5.6,8.3C29.2,312.1,29.6,312.5,29.9,312.2L29.9,312.2z"/>
	</g>
	<g>
		<path class="st0" d="M94.3,254.4c3.6,2.2,8.1,3,12.2,3.9c4.1,0.9,8.2,1.8,12.4,2.4c8.5,1.3,17,2,25.6,2.3c8.8,0.2,17.5-0.1,26.2-1
			c4-0.4,8-0.9,11.9-1.5c4.2-0.7,8.8-1.1,12.7-2.7c1.5-0.6,0.7-3-0.8-3c-3.9,0.1-7.9,1.4-11.8,2.1c-4.3,0.7-8.7,1.3-13.1,1.7
			c-8.4,0.8-16.8,1.1-25.2,0.9c-8.6-0.2-17.2-0.9-25.7-2.2c-4-0.6-8-1.2-11.9-2c-3.9-0.8-8.1-2.2-12.1-2.1
			C94,253.1,93.7,254,94.3,254.4L94.3,254.4z"/>
	</g>
	<g>
		<path class="st0" d="M96.6,260.4c3.1,1.7,7,2.2,10.4,2.9c4.1,0.8,8.2,1.6,12.4,2.2c8.8,1.2,17.6,1.8,26.5,2
			c15.3,0.4,31.2,0.1,46.1-3.6c4.3-1.1,11.3-2.6,13.8-6.7c0.7-1.2-0.7-2.6-1.9-1.9c-3.8,2.4-7.4,4.1-11.7,5.3
			c-6.5,1.7-13.1,2.7-19.8,3.3c-16.5,1.6-33.3,1.4-49.8-0.1c-4.6-0.4-9.2-0.8-13.8-1.5C104.7,261.7,100.6,260.4,96.6,260.4
			C96.6,260.3,96.6,260.4,96.6,260.4L96.6,260.4z"/>
	</g>
	<path class="st0" d="M56.8,449.9c0.2,1.7,0.7,3.5,1.9,4.7c2.1,2.2,5.9,2,8.3,0.2c2.5-1.8,3.8-4.7,4.5-7.7c0.5-2.2,0.7-4.7-0.6-6.6
		C65,431.4,56.1,442.9,56.8,449.9z"/>
	<path class="st0" d="M304.7,399.4c-1.5,2-2.9,4.3-3.1,6.8c-0.1,2.5,1.4,5.3,3.9,5.7c2,0.3,3.9-0.9,5.6-2c4.2-2.9,8.5-6,11.2-10.4
		c1.1-1.7,1.9-3.9,1.1-5.7c-1.1-2.3-6.2-3.8-8.6-3.4C310.9,391.1,306.9,396.4,304.7,399.4z"/>
	<g>
		<path class="st9" d="M109.7,310.3c-4.3,11.9-1.8,25.2,1.7,37.4c3.7,13.2,9.7,27.5,22.2,33.2c4,1.8,8.4,2.6,12.7,3
			c8,0.6,16.4-0.4,23-4.9c10.2-7,13.7-20.7,13.4-33.1c-0.2-13.1-3.7-26.3-11.6-36.7C156.6,289.9,119.8,282.3,109.7,310.3z"/>
		<g>
			<path class="st0" d="M150.3,383.6C150.3,383.6,150.3,383.6,150.3,383.6c-1.4,0-2.7-0.1-4.2-0.2c-5.2-0.4-9.4-1.4-13-3
				c-13.3-6.1-19.1-21.2-22.6-33.8c-3.3-11.8-6.1-25.5-1.7-37.9c4.4-12.2,14.1-18.9,27.4-18.9c13.3,0,27.6,7,35.5,17.5
				c9.4,12.5,11.6,27.1,11.8,37.2c0.3,15.3-4.8,27.6-13.8,33.8C164.6,381.8,158.1,383.6,150.3,383.6z M136.1,291.5
				c-7.2,0-20.2,2.3-25.8,17.8c-4.3,12-1.5,25.4,1.7,36.9c3.4,12.2,9,26.9,21.7,32.7c3.4,1.6,7.5,2.5,12.4,2.9
				c1.4,0.1,2.7,0.2,4,0.2c7.4,0,13.6-1.7,18.4-4.9c12.1-8.3,13.2-25.4,13.1-32.4c-0.2-9.9-2.3-24.1-11.4-36.2
				C162.7,298.3,148.9,291.5,136.1,291.5z"/>
		</g>
		<path class="st0" d="M151.4,314.2c-2-1.4-4.6-1.9-7-1.8c-5.3,0.2-10.4,3-13.5,7.3c-2.2,3.1-3.3,7.1-2.6,10.8
			c0.7,3.7,3.6,7.1,7.2,8c2.6,0.7,5.4,0.1,8.1-0.5c2.6-0.7,5.4-1.4,8.1-1.1c2.7,0.3,5.5,2,6.1,4.7c0.5,2.1-0.4,4.4-1.9,6
			c-1.5,1.6-3.5,2.6-5.5,3.5c-2.9,1.3-6,2.5-9.1,2.2c-3.1-0.4-6.2-2.9-6.1-6.1c-3,0.7-5.9,1.3-8.9,2c0,3.9,2,7.7,5,10.2
			c3,2.5,6.8,3.9,10.7,4.5c4.6,0.7,9.4,0.3,13.7-1.7c4.2-1.9,7.8-5.5,9.3-9.9c1.1-3.2,1.1-6.7,1-10.1c-0.2-3.4-0.6-7.1-2.9-9.8
			c-2.9-3.4-7.8-4.2-12.3-3.8c-4.4,0.4-8.8,1.6-13.3,1.2c-1.1-0.1-2.4-0.4-3.1-1.2c-0.5-0.6-0.7-1.4-0.7-2.2
			c-0.1-3.1,2.3-6.1,5.4-6.4c3.1-0.3,6.1,2.6,5.7,5.6c0.3-2.2,9.3-3.2,11-3.4C155.6,319.3,153.7,315.8,151.4,314.2z"/>
	</g>
	<path class="st10" d="M106.9,138.4c-2.4,1.7-4.7,3.5-6.4,5.9c-1.7,2.4-2.7,5.3-2.3,8.2c0.1,0.7,0.3,1.5,0.8,2
		c0.8,0.9,2.2,1.1,3.4,0.9c5-0.7,8.1-5.5,11.3-9.3c7-8.3,17.6-13.5,28.4-14.1c0.7,0,1.5-0.1,2.1-0.4c0.6-0.3,1.1-1.1,0.8-1.8
		c-0.3-0.7-1-0.9-1.7-1.1C130.2,125.7,117.6,130.8,106.9,138.4z"/>
	<path class="st10" d="M98,274.4c-1.7,2.2-2.5,4.8-3.2,7.5c-2.7,10.3-3.3,21.4,0.5,31.4c0.4,1,1.3,2.2,2.3,1.8
		c0.5-0.2,0.8-0.8,1-1.3c1.7-4.4,1.9-9.2,3-13.7c1.6-6.6,4.9-12.8,9.6-17.7c1.4-1.5,3.1-3.1,3.3-5.1
		C115.4,268.3,101.7,269.6,98,274.4z"/>
</g>
</svg>
