<?xml version="1.0" encoding="utf-8"?>
<!-- Generator: Adobe Illustrator 23.0.3, SVG Export Plug-In . SVG Version: 6.00 Build 0)  -->
<svg version="1.1" id="Layer_1" xmlns="http://www.w3.org/2000/svg" xmlns:xlink="http://www.w3.org/1999/xlink" x="0px" y="0px"
	 viewBox="0 0 500 500" style="enable-background:new 0 0 500 500;" xml:space="preserve">
<style type="text/css">
	.st0{fill:#F4932B;}
	.st1{fill:#E17D26;}
	.st2{fill:#8F7AB8;}
	.st3{fill:#B9CCE7;}
	.st4{fill:#6A5E8C;}
	.st5{fill:#FCB33D;}
	.st6{fill:#A2B4D6;}
	.st7{fill:#E6D2D0;}
	.st8{fill:#353438;}
	.st9{fill:#FFFFFF;}
	.st10{opacity:0.34;}
</style>
<g>
	<path class="st0" d="M283,200.6c43.8,6.1,80.3,47.3,122.2,61.4c27.6,9.3,58.7,8,85.5-3.5c0.3,17.9-7,35.8-19.9,48.3
		c-12,11.6-28.8,19.4-35,34.8c-2.5,6.2-3,13-5.8,19c-7.9,16.8-30.2,20.5-48.7,18.8c-18.5-1.7-38.2-6.4-54.9,1.7
		c-13.2,6.4-22.3,19.8-36.1,24.5c-14.3,4.8-29.9-0.9-45-1.3c-25.1-0.7-50.1,13.3-74.4,7.1c-4.1-1-8.2-2.7-10.9-6
		c-2.3-2.7-3.4-6.2-4.4-9.6c-12.8-44.2-19.6-90.1-20.2-136.1c-0.2-15.1,0.5-31,8.6-43.8c9.5-15,27.4-22.5,44.8-26.2
		c10.6-2.2,22-3.4,32.2,0.4c11.2,4.1,14.9,20.7,22.5,22.4c3.5,0.8,15.3-6.3,19.7-7.1C270.8,203.9,275.4,199.5,283,200.6z"/>
	<g>
		<g>
			<path class="st1" d="M324.8,381.7c-3.5-4.2-6.6-8.8-9.4-13.4c-7.8-12.8-14-26.6-23.2-38.3c-4.4,10.5-4.7,22.3-4.2,33.7
				c0.5,13.6,2,27.3,5.4,40.5C305,398.9,313.4,387.8,324.8,381.7z"/>
		</g>
		<g>
			<path class="st1" d="M311.6,212c7.3,12.4,18.1,24.9,21.9,29c10.6,11.3,22.8,21.1,36.1,29.1c32.4,19.4,70.7,27.7,108.5,26.8
				c0.3,0,0.6,0,0.9,0c7.7-11.2,11.9-24.9,11.6-38.5c-26.8,11.5-57.8,12.8-85.5,3.5C371.7,250.8,343.8,225.1,311.6,212z"/>
		</g>
		<g>
			<path class="st1" d="M429.8,360.6c2.8-6,3.3-12.9,5.8-19c0.6-1.5,1.3-3,2.2-4.4c-8.4-0.7-16.9-2-25.1-4
				c-27-6.4-52.3-18.5-77.1-30.8c11.5,28.6,36.5,50.3,50.8,77.3C403.7,380.3,422.7,375.8,429.8,360.6z"/>
		</g>
	</g>
	<path class="st2" d="M118.7,337.9c0.5,3.8,1.1,7.6,3,11c3.2,6,9.8,9.4,16.1,11.9c38.9,15.5,83.1,11.4,123.4,0
		c2.8-0.8,5.8-1.7,7.4-4.1c1.8-2.6,1.5-6,1.2-9.1c-4-36.3-5.2-72.9-3.6-109.4c0.6-12.5,1.4-25.2-1.3-37.4
		c-6.1-27.5-30.1-48.5-56.8-57.5c-17.1-5.7-35.6-7.3-53.4-4.4c-10,1.6-20.1,4.8-27.9,11.3c-12.3,10.3-9.7,21.6-10.9,35.4
		c-1.5,16.8-2.9,33.6-3.3,50.5C112,270.1,114,304.2,118.7,337.9z"/>
	<path class="st3" d="M20.2,174.8c-6.6-9.9-12.8-21.5-10.5-33.3c0.4-2.3,1.9-5,4.2-4.8c-2.5-4.4-3.8-9.6-3.6-14.6
		c0-0.7,0.1-1.6,0.6-2.1c1.3-1.5,3.7,0,4.9,1.6c4.4,5.3,8.2,11.1,12,17c4.5,6.9,9,13.9,12.1,21.6c3.1,7.6,4.9,16,3.7,24.2
		c-0.2,1.7-0.6,3.4-1.7,4.7C33.4,199.5,23.9,180.2,20.2,174.8z"/>
	<path class="st2" d="M204.9,345.9c11,24,21.9,47.9,32.9,71.9c1.3,2.9,2.7,5.8,5.2,7.9c2.5,2,5.9,3,9.2,3.7
		c10.8,2.2,24.3-10.5,35.1-13.3c-13.5-24.9-12.9-42.1-17.4-68.4c-1.9-11.4-4.9-20.5-9.8-31.1c-4.9-10.6-13-14.1-25.2-18.2
		c-14.6-4.9-23.3,5.3-30.9,17.7C196.3,328.8,199.6,334.3,204.9,345.9z"/>
	<path class="st2" d="M230.1,433.5c-0.7,3.5-0.9,7.8,2,9.7c1.5,1,3.5,0.9,5.2,0.8c17.8-1.5,52.9-18.4,53.7-19.5
		c1.2-1.6,1.2-3.9,0.4-5.8c-0.7-1.9-8.2-14-11.1-18.1c-2.9-4.1-6.9-7.8-11.8-9c-3.7-0.9-7.6-0.2-11.3,0.6c-4.9,1.1-9.7,2.5-13.9,5.3
		C232.6,404.9,232.3,421.9,230.1,433.5z"/>
	<path class="st2" d="M38.7,157.1c-3.3,6.5-6.6,12.9-9.9,19.4c-1,1.9-1.9,3.8-1.9,5.9c0.1,2.5,1.6,4.8,3.2,6.8
		c24.5,32.3,57.7,58.1,95.1,73.8c2.6,1.1,5.7,2.2,8.3,1c1.5-0.7,2.6-2,3.6-3.3c5.3-7,9.6-14.8,12.6-23.1c2.8-7.8,4.5-16.4,2.2-24.4
		c-5.9-20.3-32.7-20.1-49.3-25.6C80,180.2,58.5,169.9,38.7,157.1z"/>
	<path class="st4" d="M256.5,306.6c2.6,10.9,4.3,22,6.4,33c3.7,19.3,10.6,37.8,15.9,56.7c-6.8-37.1-10.1-75.5-11.7-113.7
		c-0.3-7.3-0.6-14.9-3.9-21.5c-2.4-4.7-6.3-8.6-11.1-11c-2.9-1.5-6.3-2.3-9.4-1.5c-12.5,3.5,0.2,19.5,3.1,26
		C250.2,284.9,253.8,295.6,256.5,306.6z"/>
	<path class="st2" d="M120.2,343.9c4.6,25.9,16.3,54.1,23.6,79.4c0.9,3,1.8,6.1,4.1,8.6c2.2,2.4,5.4,3.8,8.6,5
		c10.4,3.8,25-0.8,36.2-2c-2.4-26.6-7.9-47.4-8.5-74.1c-0.3-11.5-0.3-23.2-3.6-34.4c-3.3-11.2-10.5-22-22-27.8
		c-13.8-6.9-34.9-8.8-37.2,5.5C118.9,319.9,117.5,328.4,120.2,343.9z"/>
	<path class="st2" d="M129.6,433.2c-1.6,3.1-3,7.3-0.7,9.9c1.2,1.3,3.1,1.8,4.8,2.1c17.5,3.3,55.9-3.4,57-4.3c1.6-1.2,2.2-3.5,2-5.5
		c-0.2-2-4.1-15.7-5.8-20.4c-1.7-4.7-4.5-9.4-8.9-11.8c-3.3-1.9-7.3-2.3-11.1-2.5c-5-0.3-10.1-0.2-14.8,1.4
		C139.7,406.3,134.9,422.6,129.6,433.2z"/>
	<path class="st4" d="M176.4,386.8c1.9,3.1,3.8,6.2,5.4,9.4c2.1,4.3,3.6,8.9,5.2,13.5c1.6,4.7,3.2,9.4,4.7,14.1
		c-2.7-17.5-5.7-35.5-7-53.1c-9.8-0.8-14.9-1.4-26.6-3.6C166.7,369.4,172,379.7,176.4,386.8z"/>
	<path class="st3" d="M330.5,312.2c9.3,4.8,19.4,9.7,29.8,8.2c2-0.3,4.2-1,5.3-2.7c0.3-0.5,0.6-1.1,1.1-1.4c0.6-0.4,1.4-0.2,2.1-0.1
		c1.6,0.3,3.2,0.5,4.7,0.2c1.5-0.4,3-1.5,3.3-3.1c0.3-1.6-0.6-3.2-1.6-4.5c-4-5.3-9.6-9.2-15-13c-5.2-3.6-10.4-7.2-15.7-10.9
		c-5.6-3.9-12-8-18.7-6.8c-5.6,1-10.2,6-11.3,11.6c-1,5.3,1,10.2,3.8,14.6C321.1,308.5,326.3,310,330.5,312.2z"/>
	<path class="st2" d="M298.8,298c7.5,4.1,15.3,8.1,23.7,8.8c8.5,0.7,17.8-2.8,21.7-10.4c1.5-2.9,2-6.4,0.6-9.3c-1-2-2.8-3.5-4.5-4.9
		c-13.7-11.3-48.1-51.9-64.5-67.7c-7.2-7-22-15.6-32-15.2c-9.8,0.3-15.9,10.4-19.8,19.4c-8.6,20-2,29.1,13.7,40.6
		C257.3,273.3,277.7,286.4,298.8,298z"/>
	<path class="st5" d="M114.9,304.6c0,0,34.9,13.5,72.6,10.9c55.8-3.9,80-22.2,80-22.2l1.8,29.2c0,0-18.7,20.8-76.5,25.2
		c-59.7,4.5-74-9.8-74-9.8s-1.3-9.8-2.3-18.5C115.4,310.8,114.9,304.6,114.9,304.6z"/>
	<path class="st0" d="M201.1,331.2c0,7.2-7.3,13-16.4,13c-9.1,0-16.4-5.8-16.4-13c0-7.2,7.3-13,16.4-13
		C193.7,318.2,201.1,324,201.1,331.2z"/>
	<g>
		<path class="st2" d="M184.7,345.1c-9.5,0-17.3-6.2-17.3-13.9c0-7.7,7.8-13.9,17.3-13.9c9.5,0,17.3,6.2,17.3,13.9
			C202,338.9,194.2,345.1,184.7,345.1z M184.7,319.1c-8.5,0-15.5,5.4-15.5,12.1c0,6.7,7,12.1,15.5,12.1c8.5,0,15.5-5.4,15.5-12.1
			C200.2,324.5,193.2,319.1,184.7,319.1z"/>
	</g>
	<g>
		<path class="st2" d="M190.9,327.7c1.1-0.5,1.7-1.3,1.1-2.6c-0.8-1.7-3.7-2.5-5.3-2.8c-3.2-0.7-12.6-0.8-11.7,4.7
			c0.8,4.6,9.5,4.3,13,5.1c0.7,0.2,3.7,1.2,3.5,1.3c-0.5,0.5-3,0.6-3.9,0.7c-3.2,0.2-6.1-0.7-8.9-2.2c-2.7-1.4-4.9,2.4-2.4,4
			c3.3,2.1,7.4,3.1,11.2,2.9c3.1-0.2,7.7-0.9,8.6-4.5c1-3.6-2.7-5.9-5.6-7c-2-0.8-4-1.1-6.1-1.4c-0.9-0.1-1.8-0.3-2.7-0.5
			c-0.6-0.1-1.2-0.2-1.8-0.3c-0.9-0.3-1.1-0.3-0.6,0c0.1,0.6,0.2,1.3,0.3,1.9c0.9-2.7,11.5-2.1,10.7,0.4
			C190.5,327.6,190.7,327.8,190.9,327.7L190.9,327.7z"/>
	</g>
	<path class="st5" d="M244,236.1c12.2-4.9,24.6-10.2,34-19.3c-5-6.4-10.5-13.3-18.4-15.4c-3.6-1-7.4-0.9-11.1-0.6
		c-9.8,0.8-19.6,2.8-29,5.9c-9.6,3.2-18.9,7.8-26.1,14.9c-2.4,2.3-4.5,5.1-5.1,8.3c-1,5.2,2.3,17.2,8.5,18.1
		c9.6,1.4,21.2-2.6,30.2-5.6C232.7,240.6,238.3,238.3,244,236.1z"/>
	<g>
		<path class="st4" d="M303,222.6c13.8,6.8,29.3,9.7,44.6,9.7c-5.8-8.6-11.6-17.3-18.6-24.8c-7.1-7.6-15.6-14-25.4-17.4
			c9.1,5.5,20.5,6,31,4.2c6-1,11.8-2.7,17.4-5c-12.4-11.5-26.3-21.3-41.3-29c-7.4-3.8-15.2-7.2-23.5-8.2c-4.6-0.6-9.4-0.5-13.8,1.1
			c-4.4,1.6-8.2,4.8-10,9.1c-2.8,6.8,0.2,13.2,3.2,19.2c2.2,4.3,3.7,8.9,6,13.1C279.3,206.8,290.7,216.5,303,222.6z"/>
		<path class="st6" d="M274.7,95.3c25.5-7.7,52.6-11.9,79-8c6.9,1,13.9,2.7,19.9,6.3c2.3,1.4,4.5,3.2,5.9,5.5c2.3,3.9,2,8.9,0,12.9
			c-2,4-5.4,7.1-9.3,9.4c-2.2,1.3-4.6,2.5-6,4.6c-3.1,4.6-0.4,11-2.1,16.3c-2.2,7-10.9,9.4-15.4,15.2c-4.1,5.3-4.2,12.8-8.2,18.2
			c-4,5.3-11,7.3-17.7,7.5c-5.1,0.1-10.2-0.6-14.8-2.6c-5-2.2-9.3-5.9-13.5-9.4c-7.1-6.1-14.3-12.2-21.4-18.3L274.7,95.3z"/>
		<path class="st7" d="M315,103.5c9.7-0.6,19.6-1.1,28.7,2.3c2.1,0.8,4.2,1.8,5.6,3.5c3,3.7,1.7,9.4-1.1,13.3
			c-2.7,3.9-6.7,6.9-9.3,10.9c-2.6,3.9-3.9,8.5-5.6,12.9c-1.7,4.4-3.9,8.8-7.8,11.4c-3,2-6.8,2.7-10.4,3c-6.2,0.4-12.5-0.5-18.7-1.4
			c-10.4-1.5-21.6-3.5-29-11c-2.1-2.1-3.8-4.6-4.6-7.4c-0.9-3.3-0.6-6.8,0-10.1c0.8-4.4,2.3-8.8,4.9-12.4
			C277.8,104.5,299.7,104.5,315,103.5z"/>
		<path class="st6" d="M142.6,91.9c-22.5-14.3-47.5-25.7-73.9-29c-6.9-0.9-14.1-1.2-20.8,0.8c-2.6,0.8-5.2,1.9-7.1,3.8
			c-3.2,3.1-4.3,8-3.5,12.4c0.8,4.4,3.3,8.3,6.4,11.6c1.7,1.9,3.7,3.7,4.6,6.1c1.8,5.2-2.6,10.7-2.4,16.2c0.3,7.3,8,12,10.7,18.7
			c2.5,6.2,0.6,13.5,3,19.7c2.4,6.2,8.7,10,15,12c4.8,1.5,10,2.2,15,1.4c5.5-0.8,10.5-3.1,15.5-5.5c8.5-4,17-7.9,25.5-11.9
			L142.6,91.9z"/>
		<path class="st7" d="M101.6,88.9c-9.1-3.2-18.6-6.3-28.3-5.5c-2.2,0.2-4.5,0.6-6.3,1.9c-3.9,2.8-4.1,8.6-2.6,13.1
			c1.6,4.5,4.6,8.4,6.1,13c1.5,4.5,1.5,9.2,1.9,13.9c0.4,4.7,1.4,9.6,4.5,13.1c2.4,2.8,5.8,4.4,9.2,5.7c5.9,2.1,12.1,2.9,18.3,3.7
			c10.5,1.3,21.8,2.4,30.9-2.8c2.6-1.5,4.9-3.4,6.4-5.9c1.8-2.9,2.4-6.4,2.7-9.7c0.4-4.5,0.2-9.1-1.4-13.3
			C137.2,100,116,94,101.6,88.9z"/>
		<path class="st4" d="M107.8,155.5c4.5,3.5,10.2,5.3,15.7,6.9c51.1,14.7,104.3,20.8,157.1,26.8c1.3,0.1,2.6,0.3,3.9,0
			c2.8-0.6,4.9-3.4,5.4-6.2c0.5-2.9-0.3-5.8-1.5-8.5c-5.2-11.8-17.1-19.1-28.7-24.7c-40.9-19.7-87.2-27.6-132.5-24.2
			c-4.3,0.3-8.7,0.8-12.6,2.6c-4.6,2.2-10.9,7.8-13.2,12.5C98.9,145.8,104,152.5,107.8,155.5z"/>
		<path class="st3" d="M109.4,188.8c-4.1-16.9-5.9-34.5-3.8-51.8c2.1-17.3,4.8-39.9,15.7-53.5c14.2-17.6,38.5-25.9,60.9-28.6
			c28.1-3.4,45.2,1.7,66.5,11.8c37.4,17.7,42.3,60.4,43.7,77.3c1.4,16.9-2,37.3-10.7,51.8c-13.9,23.1-40.5,36.1-67.2,40
			c-21.3,3.1-42.3,0.7-63.4-1.8c-15.1-1.7-22.9-0.1-30.8-15.1C115.3,209.5,111.9,199.2,109.4,188.8z"/>
		<path class="st3" d="M146.2,273.1c8.3,9.1,17.6,17.2,27.5,24.5c8.4,6.2,17.5,12.1,27.8,14c4.5-12.3,10.1-24.2,16.8-35.5
			c-5.6-1.9-9.3-7.2-10.9-9.9c-6.7-11-7.2-18.6-8.1-31.5c-1.2-17.9,3.5-35.7,6.1-53.4c2.6-17.8,2.7-37.1-6.7-52.4
			c-3.3-5.4-7.8-10.1-12.5-14.3c-4.8-4.2-10-7.9-16-10c-15.3-5.3-31.6,1-43.9,10.3c-8.9,6.7-18.5,14.2-20.3,25.7
			c-4.6,29,1.6,62.1,12.9,88.9C125.4,245.5,134.6,260.3,146.2,273.1z"/>
		<path class="st2" d="M99.9,130.1c2.2-10.8,4.3-21.6,6.5-32.3c0.7-3.4,1.4-6.9,3.3-9.8c3.4-5.4,10.1-7.7,16.4-8.8
			c7.1-1.2,14.3-1.3,21.5-1.3c36.5,0.4,74.1,5.7,105.4,24.4c5,3,9.9,6.4,14.2,10.4c5.2,4.9,9.5,10.6,13.2,16.7
			c2.8,4.6,5.3,9.4,7.5,14.4c5.7,13.3,8.7,29.2,1.5,41.7c-1.7-6.8-7.5-11.9-13.2-15.9c-14.3-10.1-50-41.5-153.3-38.5
			c-4.8,0.1-9.6,1.4-13.7,3.9c-4.8,2.9-6.5,7-7.2,12.2C98,142.7,98.8,135.3,99.9,130.1z"/>
		<path class="st3" d="M205.7,109.6c-2.2,3.6-2.3,8.5,0.2,11.9c2.2,3,5.8,4.5,9.3,5.8c4.6,1.8,9.1,3.5,13.7,5.3
			c3.1,1.2,6.4,2.4,9.6,1.8c3.5-0.6,6.5-3.6,7.2-7.1c0.7-3.7-0.8-7.4-3-10.5c-4.4-6.1-11.3-10.1-18.7-11.2
			C217.1,104.5,210.3,102.3,205.7,109.6z"/>
		<path class="st3" d="M116.4,106.6c-1.9,2.7-3.3,6.3-2.1,9.5c1.5,4.1,6.9,5.7,11,4.1c3.4-1.3,6-4.1,9.3-5.6
			c2.1-0.9,4.5-1.3,6.4-2.6c2.2-1.5,3.3-4.1,3.8-6.6c0.3-1.6,0.4-3.3-0.4-4.7c-0.9-1.7-2.7-2.6-4.4-3.2
			C131.5,94.9,121.4,99.6,116.4,106.6z"/>
		<g>
			<path class="st8" d="M215.3,112.5c-1.6,2.6-1.5,6.2,0.1,8.8c1.6,2.6,4.5,4.4,7.6,4.8c1.1,0.1,2.3,0.1,3.4-0.3
				c1.8-0.7,3.1-2.3,4-4.1c1.5-2.8,2.3-6.3,0.6-8.9C227.8,108.1,218.3,107.5,215.3,112.5z"/>
			<path class="st9" d="M218.1,114.8c-0.6,1.1-0.9,2.6-0.3,3.7c0.6,1.1,2.3,1.7,3.3,0.9c0.5-0.4,0.7-1.1,1.1-1.7
				c0.5-1,1.5-1.8,2.6-2.2c1-0.4,2.2-0.5,2.6-1.4c0.4-0.9-0.2-1.9-1-2.4C223.6,110.1,219.4,112.3,218.1,114.8z"/>
		</g>
		<g>
			<path class="st8" d="M121,104.3c-1.3,2.3-1.2,5.4,0.1,7.7c1.3,2.3,3.6,3.8,6,4.2c0.9,0.1,1.8,0.1,2.7-0.3
				c1.4-0.6,2.4-2.1,3.2-3.6c1.2-2.4,1.8-5.5,0.4-7.8C130.9,100.5,123.4,100,121,104.3z"/>
			<path class="st9" d="M123.2,106.4c-0.5,1-0.7,2.3-0.2,3.3c0.5,1,1.8,1.5,2.6,0.8c0.4-0.4,0.6-1,0.8-1.5c0.4-0.9,1.2-1.6,2-2
				c0.8-0.3,1.7-0.5,2.1-1.3c0.3-0.8-0.1-1.7-0.8-2.1C127.6,102.2,124.3,104.2,123.2,106.4z"/>
		</g>
		<path class="st8" d="M242,199.1c-4,4.6-7,13.9-12.9,21.5c-10.3,13.2-16.4,14.4-32.3,18c-1.6-4-9.1-25.5-3.2-27.1
			c1.5-0.4,3.7,0.5,5.2,0.7c2.4,0.3,4.9,0.6,7.4,0.2C229.8,209.2,240.6,200.8,242,199.1z"/>
		<path class="st6" d="M201.1,160.8c-5.6,22.9-5.6,46.8-2.6,70.1c1.6,12.6,4.3,25.9,11.8,36.5c4.1,5.8,8,8.7,8,8.7
			c-4.1,7.3-10.4,20-10.4,20c-17.2-19.8-27.3-69.2-23-93.8c1.3-7.5,3.3-14.8,6-21.8C193.4,174.1,199.5,167.1,201.1,160.8z"/>
	</g>
	<path class="st4" d="M113.4,261.4c-0.8-6.8-1.2-13.7-0.9-20.6c-8.3-2.7-15.5-7.7-22.9-12.3c-5.9-3.6-12-7-17.9-10.7
		c-8.3-5.3-16.2-11.3-23.5-17.9c-7.3-6.7-14.8-12.3-20.6-20.8c-2.3,5.5-1.3,6.8,2.4,11.6C55.6,224.5,100.5,256.1,113.4,261.4z"/>
	<path class="st5" d="M167.2,409.9c-1.4,3-1.6,6.3-1.3,9.5c0.3,2.8,0.9,5.6,2.1,8.2c0.8,1.7,1.9,3.3,3.5,4.5
		c1.6,1.2,3.8,1.8,5.8,1.5c2-0.4,3.6-1.6,4.7-3.1c2.9-3.7,3.1-8.5,2.2-12.9c-0.8-4-2.4-10.4-6.3-13
		C173.5,401.5,168.8,406.5,167.2,409.9z"/>
	<path class="st5" d="M259.4,399.6c-0.7,3.2-0.1,6.5,0.9,9.6c0.9,2.7,2.1,5.2,3.9,7.5c1.2,1.5,2.6,2.8,4.4,3.6
		c1.8,0.8,4.1,0.9,6,0.1c1.8-0.8,3.1-2.4,3.9-4.1c2-4.3,1.1-9-0.8-13.1c-1.7-3.7-4.7-9.6-9.1-11.3
		C263.6,389.9,260.2,395.9,259.4,399.6z"/>
	<path class="st6" d="M115.6,183.8c2.1,0.7,4.5-0.1,6.6-0.8c14.2-4.8,29.8-5.3,44.3-1.5c-4.4-1.1-8.5-3.5-12.9-4.7
		c-4.6-1.2-9.4-2-14.1-2.4c-4.8-0.4-9.6-0.8-14.3,0.2C112.6,177.1,112,182.6,115.6,183.8z"/>
	<path class="st6" d="M124,218.5c1.7,0.3,3.3-0.6,4.8-1.4c10-5.2,21.5-7.4,32.7-6.2c-3.4-0.3-6.7-1.6-10.1-2
		c-3.6-0.4-7.2-0.4-10.8-0.2c-3.6,0.3-7.2,0.5-10.6,1.8C121,213.8,121.2,218,124,218.5z"/>
	<path class="st6" d="M137.8,249.7c1.4,0.1,2.7-0.8,3.9-1.5c7.9-5.1,17.2-7.8,26.6-7.8c-2.8,0-5.7-0.8-8.6-0.8c-3,0-6,0.2-8.9,0.7
		c-2.9,0.5-6,1-8.6,2.3C134.9,246.1,135.4,249.6,137.8,249.7z"/>
	<g class="st10">
		<path class="st9" d="M311.2,98.5c16.4,1.1,34-2.2,48.9,3.9c2.8,1.1,6.2,2.6,8.7,1c2-1.3,2-4,0.7-5.8c-1.3-1.8-3.7-2.9-5.9-3.7
			c-15.3-5.7-32.8-5.1-49.1-2.3c-2,0.3-6.4,1.3-7.5,3.1C305.5,97.2,308.9,98.3,311.2,98.5z"/>
	</g>
	<g class="st10">
		<path class="st9" d="M47.2,83.3c2.2,0.3,4.3-0.8,6-2.1c1.7-1.4,3.2-3,5.1-4.1c2.8-1.7,6.2-2,9.5-2.1c8.2-0.2,16.4,0.5,24.5,2.3
			c0.9,0.2,1.9,0.4,2.8,0c0.9-0.4,1.3-1.7,0.6-2.3c-0.2-0.2-0.5-0.3-0.7-0.3c-9.5-3.3-19.4-5.4-29.4-6.5c-4.4-0.5-8.9-0.7-13,0.9
			C48.8,70.5,38.3,82,47.2,83.3z"/>
	</g>
	<g class="st10">
		<path class="st9" d="M158.6,74.3c3.8-0.4,7.2-2.5,10.7-4.3c14.2-7.1,30.8-6.8,46.6-6.4c1.8,0,4.4-0.7,4-2.5
			c-21.5-4.2-44.1-2.8-64.8,4.1c-2.9,1-6.1,2.3-4.2,5.7C152.3,73.4,155.9,74.6,158.6,74.3z"/>
	</g>
</g>
</svg>
