<?xml version="1.0" encoding="utf-8"?>
<!-- Generator: Adobe Illustrator 23.0.3, SVG Export Plug-In . SVG Version: 6.00 Build 0)  -->
<svg version="1.1" id="Layer_1" xmlns="http://www.w3.org/2000/svg" xmlns:xlink="http://www.w3.org/1999/xlink" x="0px" y="0px"
	 viewBox="0 0 500 500" style="enable-background:new 0 0 500 500;" xml:space="preserve">
<style type="text/css">
	.st0{fill:#C54F33;}
	.st1{fill:#B0432F;}
	.st2{fill:#434848;}
	.st3{fill:#F1C3B8;}
	.st4{fill:#F3E8DB;}
	.st5{fill:#E8DED4;}
	.st6{fill:#171717;}
	.st7{fill:#FFFFFF;}
</style>
<g>
	<path class="st0" d="M165.9,236.2c-12.4,17-22.3,35.8-35.5,52.1c-29.8,36.7-76.6,58.8-123.9,58.6C9.2,353.8,18.2,355,25,358
		c17.7,7.6,23.2,29.9,37,43.4c11.1,10.9,27.2,15.3,42.7,16.4c15.5,1,31.1-0.9,46.7-0.9c49.6,0.2,97,20.6,146.4,25.1
		c25.6,2.3,53.8-0.6,72.5-18.2c9.1-8.6,15.1-19.8,19.9-31.4c17.3-41.3,20.6-88.3,9.3-131.6c-2.8-10.9-6.7-21.7-13.1-31
		c-9.8-13.9-25.1-23.3-41.2-28.5c-16.2-5.3-33.3-6.8-50.3-7.6c-23.7-1.1-56.5-5.7-79.4,1.7C195.3,201.8,178,219.5,165.9,236.2z"/>
	<g>
		<path class="st1" d="M149.5,408.8c13.4-33.2,33.5-64.5,38.5-100c-5.8,24.1-24.5,42.7-42.3,59.9c-14.6,14-29.2,28.1-46.1,39.2
			c-3.9,2.6-8,5-12.2,7.1c5.7,1.5,11.5,2.4,17.3,2.8c14.1,0.9,28.2-0.6,42.3-0.8C147.5,414.1,148.5,411.3,149.5,408.8z"/>
		<path class="st1" d="M25,357.9c5.4,2.3,9.6,6,13.3,10.3c3.4-1.6,7.1-2.9,10.6-4.1c11.3-4.1,22.4-8.8,32.9-14.7
			c12.7-7.2,24.3-16.2,34.5-26.7c18.5-18.9,32.3-42.4,39.8-67.8c0.4-1.2,1.1-3.9,1.9-7c-8.9,13.6-17.2,27.7-27.4,40.3
			c-29.8,36.7-76.6,58.8-123.9,58.6C9.2,353.8,18.2,355,25,357.9z"/>
		<path class="st1" d="M257.3,418.9c10.5-27.5,20.4-56.4,18-85.8c-0.5-6.3-8.5-9.6-14.5-7.6c-6,2-10.1,7.4-13.5,12.7
			c-11.4,17.5-19.3,37.1-30.2,54.9c-6.4,10.4-14,20.3-23.2,28.2c19.2,3.5,38.2,8.5,57.4,12.8C253.4,429,255.4,423.9,257.3,418.9z"/>
	</g>
	<path class="st2" d="M134.7,184.4c-5.8-5.4-13.2-11.9-20.5-8.9c-7.6,3.1-8,13.6-6.3,21.6c5.9,27.5,23.5,52.9,48.6,65.6
		c25.1,12.7,57.5,11.4,80-5.5c6.9-5.2,13.3-12.7,13-21.4c-0.6-24.3-33.2-22.5-49.8-23.6C175.8,210.8,152.3,200.7,134.7,184.4z"/>
	<path class="st3" d="M136.6,205.9c0.1,0.9,0.1,1.9-0.3,2.8c-0.4,0.8-1.2,1.4-2,1.9c-2.2,1.1-4.8,1.1-7.1,0.3
		c-2.3-0.8-4.3-2.3-5.9-4.1c-2.4-2.6-4.2-6.1-3.9-9.6c0-0.6,0.1-1.3,0.4-1.8c0.3-0.5,0.7-0.9,1.2-1.3c4.3-3.4,7.8-2.9,11.7,0.7
		C134,197.5,136.2,201.6,136.6,205.9z"/>
	<path class="st3" d="M120.1,187.2c0,0.7,0,1.4-0.4,2c-0.5,0.9-1.7,1.4-2.7,1.2c-1.1-0.1-2-0.7-2.8-1.4c-2.2-2-3.2-6.8,0.6-7.8
		C118,180.4,120,184.6,120.1,187.2z"/>
	<path class="st3" d="M113,193.2c0.9,0.5,1.8,1.3,2.1,2.3c0.4,1,0.3,2.2-0.4,3c-0.8,0.8-2.1,1-3.2,0.6c-1.1-0.4-1.9-1.4-2.4-2.4
		c-0.4-0.7-0.6-1.6-0.6-2.4c0.1-0.8,0.6-1.7,1.4-2c1.1-0.4,2.4,0.3,3.4,1L113,193.2z"/>
	<path class="st3" d="M123.1,183.7c0-0.2,1.4-2,3.7-0.9c1.9,0.7,2.9,2.9,2.1,4.3c-0.8,1.4-2.9,1.7-4.2,0.8
		C123.3,187.1,122.7,185.3,123.1,183.7z"/>
	<path class="st2" d="M466.2,190.7c6.2-4.9,14.1-10.8,21.2-7.2c7.3,3.7,6.9,14.2,4.5,22c-8.2,26.9-27.8,50.8-53.9,61.4
		c-26.1,10.6-58.2,6.6-79.2-12.1c-6.5-5.8-12.2-13.8-11.2-22.4c2.6-24.1,34.9-19.7,51.6-19.4C423.1,213.6,447.4,205.4,466.2,190.7z"
		/>
	<path class="st3" d="M462.4,211.5c-0.1,0.9-0.1,1.9,0.3,2.8c0.4,0.8,1.2,1.5,2,1.9c2.1,1.1,4.8,1.2,7.1,0.4c2.3-0.8,4.3-2.3,6-4.1
		c2.4-2.6,4.2-6,4.1-9.6c0-0.6-0.1-1.3-0.4-1.8c-0.3-0.5-0.7-0.9-1.1-1.3c-4.2-3.5-7.8-3-11.8,0.5
		C465.2,203.2,462.9,207.2,462.4,211.5z"/>
	<path class="st3" d="M479.2,193.1c0,0.7,0,1.4,0.3,2c0.5,0.9,1.7,1.4,2.7,1.3c1.1-0.1,2-0.6,2.8-1.3c2.3-1.9,3.3-6.8-0.5-7.8
		C481.4,186.3,479.3,190.5,479.2,193.1z"/>
	<path class="st3" d="M486.2,199.2c-0.9,0.5-1.8,1.2-2.2,2.2c-0.4,1-0.3,2.2,0.4,3c0.8,0.9,2.1,1,3.2,0.6c1.1-0.4,1.9-1.3,2.4-2.4
		c0.4-0.7,0.7-1.6,0.6-2.4c-0.1-0.8-0.6-1.7-1.3-2c-1.1-0.5-2.4,0.2-3.4,0.9L486.2,199.2z"/>
	<path class="st3" d="M476.3,189.5c0-0.2-1.3-2-3.7-0.9c-1.9,0.7-2.9,2.9-2.1,4.3c0.8,1.4,2.9,1.8,4.2,0.9
		C476,192.9,476.6,191.1,476.3,189.5z"/>
	<path class="st4" d="M191.2,209.7c-9.8,30-14,61.8-12.4,93.3c1.5,28.4,8.8,58.4,30.3,77.9c12,10.9,27.6,17.6,43.3,22.4
		c26.8,8.2,55.6,11.7,83.1,6.5c27.5-5.1,53.7-19.5,69.6-41.7c11.2-15.7,16.9-34.5,19.8-53.3c4.7-30.7,2-63-11.3-91.5
		c-13.2-28.5-37.6-52.7-68-63.2c-12.8-4.4-26.3-6.4-39.8-7.6c-25.3-2.2-50.6-1.1-73,11.2c-7.2,3.9-16.5,6.4-22.8,11.6
		C200.2,183.4,195,198.1,191.2,209.7z"/>
	<path class="st2" d="M434.3,65.8c-2.4-10.7-11.1-19.5-21.5-23c-10.4-3.5-22.1-2.1-32,2.8c-4,1.9-7.7,4.4-10.6,7.7
		c-9.8,10.9-8.6,29.1,0.9,40.2c8,9.4,32.7,20.9,44.4,11.7c2.2-1.8,2.6-4.9,4.3-7.1c2.4-3.2,6.1-5.2,8.6-8.4
		C433.6,83.1,436.1,74.2,434.3,65.8z"/>
	<path class="st3" d="M417.6,81.8c1.6-3.4,1.6-7.3,1-11c-0.2-1.5-0.6-3-1.3-4.4c-1.4-2.7-4.2-4.4-7-5.6c-5-2.1-10.8-2.8-15.9-0.9
		c-5.1,1.9-9.2,6.8-9.2,12.3c0,4,2.1,7.8,5,10.5c2.9,2.7,6.7,4.4,10.5,5.6C406.6,90.2,414.8,87.6,417.6,81.8z"/>
	<path class="st2" d="M171,64.8c2.4-10.7,11.1-19.5,21.5-23c10.4-3.5,22.1-2.1,32,2.8c4,1.9,7.7,4.4,10.6,7.7
		c9.8,10.9,8.6,29.1-0.9,40.2c-8,9.4-32.7,20.9-44.4,11.7c-2.2-1.8-2.6-4.9-4.3-7.1c-2.4-3.2-6.1-5.2-8.6-8.4
		C171.7,82.1,169.2,73.1,171,64.8z"/>
	<path class="st3" d="M187.7,80.7c-1.6-3.4-1.6-7.3-1-11c0.2-1.5,0.6-3,1.3-4.4c1.4-2.7,4.2-4.4,7-5.6c5-2.1,10.8-2.8,15.9-0.9
		c5.1,1.9,9.2,6.8,9.2,12.3c0,4-2.1,7.8-5,10.5c-2.9,2.7-6.7,4.4-10.5,5.6C198.7,89.2,190.5,86.6,187.7,80.7z"/>
	<path class="st4" d="M409.4,81.8c-14-15.3-32.8-25.5-52.6-31.7c-17.8-5.6-90.2-5.6-108,0c-19.8,6.2-38.6,16.4-52.6,31.7
		c-17.7,19.4-26.5,46.7-23.4,72.8c3.1,26.1,17.9,50.6,39.6,65.3c16.3,11.1,35.8,16.7,55.3,19.9c11.6,1.9,58.6,1.9,70.2,0
		c19.5-3.2,39-8.8,55.3-19.9c21.7-14.8,36.6-39.3,39.6-65.3C435.9,128.5,427.1,101.2,409.4,81.8z"/>
	<path class="st2" d="M208.2,102.9c-6.1,6-11.7,13.5-12.5,22.3c-1.3,13,10,25.8,22.3,25.4c8.7-0.3,16.3-5.9,22.9-11.9
		c6.6-6,13-12.6,21.1-15.8c8.4-3.2,19.1-3.2,23.9-11.1c4-6.5,1.5-15.7-3.8-21C260.7,69.2,226.6,85,208.2,102.9z"/>
	<path class="st5" d="M407.8,79.7c4.6,12.1,6.7,25,4.6,37.7c-4.4,26.2-25.6,46.5-48.1,60.7c-29.1,18.4-62.7,30.2-97,31.3
		c-28.9,0.9-58.4-6.1-83-21.1c7,12.5,16.2,16,28.1,24c16.3,11.1,38.6,2.7,58,5.9c11.6,1.9,60,2.1,71.6,0.2
		c19.5-3.2,51.7,1.5,51.7,1.5c21.7-14.8,36.6-39.3,39.6-65.3c3.1-26.1-5.7-53.3-23.4-72.8C409.2,81.1,408.5,80.4,407.8,79.7z"/>
	<path class="st2" d="M287.1,144.2c-2.3,0.2-4.6,0.5-6.6,1.5c-2,1.1-3.6,3.2-3.5,5.4c0.1,2.9,2.9,5,5.6,6c2.7,1,5.7,1.3,8.3,2.8
		c3.1,1.8,5,5.1,7.6,7.6c2.6,2.5,6.8,4.1,9.7,1.9c1.3-1,2-2.7,3.1-3.9c3-3.2,8-2.9,12.2-4.1c2.6-0.8,5.1-2.2,6.6-4.5
		c1.5-2.3,1.8-5.4,0.4-7.7c-1.8-3.1-5.7-4-9.2-4.4C310.1,143.2,298.2,143.3,287.1,144.2z"/>
	<g>
		<path class="st6" d="M236.4,102.8c-1.8,3.2-1.4,7.5,1.3,10c1.2,1.1,2.6,1.7,4.1,2.2c2,0.6,4.1,1,6.1,0.4c1.3-0.4,2.5-1.2,3.6-2
			c2.1-1.8,3.8-4.2,4.2-7c0.4-2.8-0.7-5.8-3-7.3C247.7,95.9,239.4,97.6,236.4,102.8z"/>
		<path class="st7" d="M241.2,101.9c-1.2,1-2.4,2.4-1.9,3.9c0.4,1.1,1.8,1.8,2.9,1.3c0.8-0.4,1.3-1.1,1.9-1.7c1.2-1,3.1-1.3,3.8-2.7
			c0.1-0.2,0.2-0.5,0.2-0.7c0-0.7-0.8-1.2-1.5-1.2C244.6,100.7,243,100.5,241.2,101.9z"/>
	</g>
	<path class="st0" d="M305.4,216c-7.4,3.5-15.5,5.7-23.7,6.5c-8,0.8-16.1,0.3-24.1-0.2c-21.7-1.4-43.6-2.9-64.8-7.5
		c-7.7-1.7-15.4-3.9-22.4-7.7c8.1-0.1,17.7-6.1,24.9-4.1c8.6,2.5,16.6,7,25.3,9.3c17.7,4.7,36.2,6.3,54.5,5.9
		c5.1-0.1,10.2-0.4,15.2-0.7C294.5,217.2,301.6,217.8,305.4,216z"/>
	<path class="st0" d="M286.8,222.4c-0.4,2.8,0.7,5.6,2.7,7.7c1.9,2,4.5,3.4,7.2,4.2c4,1.3,8.3,1.7,12.3,0.6c4-1.2,7.6-4.1,9-8
		c1.4-3.9,0.3-8.8-3.1-11.3C307.5,210.2,288.6,210.9,286.8,222.4z"/>
	<path class="st0" d="M273.6,231.5c-4.6,4.7-8.4,10.2-13.2,14.7c-12.7,12.2-30.7,17.1-48.1,19.3c22.3,10.8,50.7,7.5,69.9-8.1
		c8.8-7.2,16-17.4,16.6-28.8c1.3,5.5,1.1,11.3-0.7,16.6c-3,8.5-10,15-17.5,20.1c-7.5,5-15.8,8.9-23,14.3
		c-7.2,5.4-13.6,12.7-15.2,21.6c8.5-9.2,21.4-12.6,33.8-14.7c5.2-0.9,10.3-1.6,15.4-2.9c10.3-2.7,20-7.8,27.9-15
		c1.9-1.7,3.7-3.5,4.9-5.7c1.8-3.1,2.4-6.7,3-10.2c1.2-6.9,2.2-14.7-1.8-20.5c-2.6-3.9-7.1-6.2-11.5-7.8
		C299.6,218.8,284.5,220.1,273.6,231.5z"/>
	<path class="st5" d="M400.9,202.7c-24.9-1.2-50.3,9.7-75.8,11.2c18.9,12.8,34.9,30.3,44.2,51.2c9.3,20.9,11.4,45.2,4.2,66.8
		c-10.8,32.6-42.4,56-76.3,61.2c-33.9,5.2-69.1-6.2-96.6-26.8l-7.1-7.1c-0.5,0-0.9,0.1-1.3,0.1c4.3,8.4,9.9,16,17.1,22.5
		c12,10.9,27.6,17.6,43.3,22.4c26.8,8.2,55.6,11.7,83.1,6.5c27.5-5.1,53.7-19.5,69.6-41.7c11.2-15.7,16.9-34.5,19.8-53.3
		c4.7-30.7,2-63-11.3-91.5C410.2,216.7,405.9,209.5,400.9,202.7z"/>
	<path class="st2" d="M378.8,442.5c9,0.4,17.9,3.8,24.8,9.5c1.2,1,2.4,2.2,2.1,3.7c-0.3,2-2.7,2.7-4.7,2.9
		c-25.4,3.1-51.4,1.6-76.3-4.5c1.8-12.5,3.6-25,5.4-37.6c0.3-1.9,0.6-3.8,1.3-5.5c1.7-3.8,5.5-6.1,9.1-8.2
		c16.8-9.8,34.1-19,49.1-31.3c16.5-13.5,25.1-28.6,33.9-47.4c3,15.8-5.9,37-11.1,51.5C404.2,399.2,392.8,421.7,378.8,442.5z"/>
	<path class="st2" d="M178.3,272.7c0.6,2.6,68.2,28.5,116.6,28.5c81,0,132.2-25.2,132.2-25.2l-0.5,25.2l-2.9,23
		c0,0-43.4,36.5-118.3,34.5c-87.2-2.3-124.8-38.2-124.8-38.2l-2.3-21.4V272.7z"/>
	<path class="st4" d="M341.9,329.6c0,14.1-16.3,25.6-36.5,25.6c-20.2,0-36.5-11.5-36.5-25.6c0-14.1,16.3-25.6,36.5-25.6
		C325.6,304,341.9,315.5,341.9,329.6z"/>
	<g>
		<path class="st0" d="M305.4,356c-20.6,0-37.3-11.9-37.3-26.4c0-14.6,16.7-26.4,37.3-26.4c20.6,0,37.3,11.9,37.3,26.4
			C342.7,344.2,326,356,305.4,356z M305.4,304.9c-19.7,0-35.6,11.1-35.6,24.7c0,13.6,16,24.7,35.6,24.7c19.7,0,35.6-11.1,35.6-24.7
			C341.1,316,325.1,304.9,305.4,304.9z"/>
	</g>
	<g>
		<path class="st0" d="M304,323.8c-3.2-9-23.2-7.9-18.3,2.5c2.7,5.9,9.8,4.6,15,6.1c2.5,0.8,6.7,3.7,3.4,6.6
			c-1.2,1.1-3.8,1.5-5.5,1.6c-1.6,0.1-3.3,0-4.8-0.5c-0.2-0.1-5.1-2.8-4.6-3.1c1.2-0.6,0.6-2.5-0.7-2.4c-2.4,0.2-2.8,2.2-1.7,4.1
			c1.4,2.2,4.1,3.6,6.5,4.3c4.5,1.2,14,0.7,14.6-5.4c0.8-8-9.4-8-14.6-9.1c-2-0.4-4.3-1.2-5.3-3.2c-1.7-3.4,1.7-5.1,4.5-5.3
			c4.3-0.3,7.2,2,10.5,4.4C303.6,324.7,304.2,324.3,304,323.8L304,323.8z"/>
	</g>
	<g>
		<path class="st0" d="M309.4,318.4c-1.1,3.8-0.8,8.2-0.9,12.2c-0.1,4.4,0,8.8,0.1,13.2c0.1,1.9,2.8,1.6,2.6-0.3
			c-0.1-0.6-0.2-1.2-0.3-1.7c-0.2-1.3-2-0.8-2.1,0.3c-0.1,0.6-0.1,1.2-0.2,1.8c0.9,0,1.7,0,2.6,0c-0.2-4.4-0.3-8.8-0.4-13.2
			c-0.1-4,0.3-8.2-0.5-12.2C310.3,317.9,309.5,317.9,309.4,318.4L309.4,318.4z"/>
	</g>
	<g>
		<path class="st0" d="M309.2,319.5c1.4-1.8,5-1.7,7.1-1.6c3.2,0.1,6.6,1.2,7.5,4.6c1,3.5-1.6,6.9-5.2,7.1c-2.8,0.2-5.5-1.3-8.2-1.6
			c-1.2-0.1-1.7,1.8-0.6,2.3c3.8,1.7,9.1,3.2,13,0.8c3.2-2,4.7-5.8,3.6-9.4c-2-7-13.9-9.1-17.4-2.6
			C308.7,319.4,309,319.7,309.2,319.5L309.2,319.5z"/>
	</g>
	<path class="st0" d="M294.9,215.1c7.4,3.7,15.3,6.1,23.5,7.2c8,1,16.1,0.7,24.1,0.4c21.8-0.8,43.6-1.7,65-5.8
		c7.8-1.5,15.5-3.4,22.6-7.1c-8.1-0.3-17.6-6.6-24.7-4.7c-8.6,2.2-16.8,6.5-25.6,8.6c-17.8,4.2-36.3,5.3-54.6,4.4
		c-5.1-0.2-10.1-0.6-15.2-1.1C305.8,216.6,298.7,217,294.9,215.1z"/>
	<path class="st2" d="M226,442.5c-9,0.4-17.9,3.8-24.8,9.5c-1.2,1-2.4,2.2-2.1,3.7c0.3,2,2.7,2.7,4.7,2.9
		c25.4,3.1,51.4,1.6,76.3-4.5c-1.8-12.5-3.6-25-5.4-37.6c-0.3-1.9-0.6-3.8-1.3-5.5c-1.7-3.8-5.5-6.1-9.1-8.2
		c-16.8-9.8-34.1-19-49.1-31.3c-16.5-13.5-25.1-28.6-33.9-47.4c-3,15.8,5.9,37,11.1,51.5C200.7,399.2,212.1,421.7,226,442.5z"/>
	<path class="st2" d="M397.3,104c6,6,11.5,13.5,12.3,22.3c1.3,13-9.8,25.8-22,25.4c-8.5-0.3-16-5.9-22.5-11.9
		c-6.5-6-12.8-12.6-20.8-15.8c-8.2-3.2-18.8-3.2-23.5-11.1c-3.9-6.5-1.4-15.7,3.8-21C345.6,70.2,379.2,86,397.3,104z"/>
	<g>
		<path class="st6" d="M355.2,104.8c-1.8,3.2-1.4,7.5,1.3,10c1.2,1.1,2.6,1.7,4.1,2.2c2,0.6,4.1,1,6.1,0.4c1.3-0.4,2.5-1.2,3.6-2
			c2.1-1.8,3.8-4.2,4.2-7c0.4-2.8-0.7-5.8-3-7.3C366.4,97.9,358.1,99.6,355.2,104.8z"/>
		<path class="st7" d="M360,104c-1.2,1-2.4,2.4-1.9,3.9c0.4,1.1,1.8,1.8,2.9,1.3c0.8-0.4,1.3-1.1,1.9-1.7c1.2-1,3.1-1.3,3.8-2.7
			c0.1-0.2,0.2-0.5,0.2-0.7c0-0.7-0.8-1.2-1.5-1.2C363.4,102.7,361.7,102.5,360,104z"/>
	</g>
	<path class="st2" d="M327.6,181.5c5-2.6,10-5.5,14-9.9c-5.8,10.6-13.3,21-23.9,25.2c-7.7,3.1-16.4,2.4-24.2-0.6
		c-7.7-3-14.6-8.3-20.8-14.3c-2.7-2.7-5.4-5.6-7.4-8.9c4.2,3.3,8.1,6.7,13.1,8.7C297.8,189.6,321.6,184.5,327.6,181.5z"/>
	<path class="st7" d="M222.7,82c5.2,0.3,10.1-2.2,14.3-5.3c4.2-3.1,7.9-6.8,12.4-9.4c9-5.2,19.9-5.4,30.1-7c2-0.3,4.7-1.8,3.8-3.7
		c-0.3-0.6-0.9-1-1.6-1.3c-5.3-2.6-11.5-2.3-17.3-1.5c-13.9,1.9-27.4,6.6-39.5,13.7c-2.7,1.6-8.7,4.8-9.4,8.2
		C214.7,79.4,219.4,81.8,222.7,82z"/>
	<path class="st7" d="M206.3,84.8c-2.4,1.5-4.5,3.3-6.2,5.5c-1,1.3-1.9,2.7-2.2,4.3c-0.3,1.6,0.1,3.4,1.4,4.4c0.8,0.7,1.9,1,3,1
		c4.4,0.1,8-3.7,9.9-7.6c0.5-1.1,1-2.2,1-3.4c0-1.9-1.2-3.7-2.9-4.4c-1.8-0.7-3.9-0.2-5.2,1.2L206.3,84.8z"/>
</g>
</svg>
