<?xml version="1.0" encoding="utf-8"?>
<!-- Generator: Adobe Illustrator 23.0.3, SVG Export Plug-In . SVG Version: 6.00 Build 0)  -->
<svg version="1.1" id="Layer_1" xmlns="http://www.w3.org/2000/svg" xmlns:xlink="http://www.w3.org/1999/xlink" x="0px" y="0px"
	 viewBox="0 0 8241.4 4595.7" style="enable-background:new 0 0 8241.4 4595.7;" xml:space="preserve">
<style type="text/css">
	.st0{fill:#59A52C;}
	.st1{fill:#F6F6F6;}
</style>
<g>
	<path class="st0" d="M625.9,1841.4c0,2.3-0.1,4.5-0.3,6.8c-0.2,2.3-0.6,4.5-1,6.7c-0.4,2.2-1,4.4-1.7,6.6c-0.7,2.2-1.4,4.3-2.3,6.4
		c-0.9,2.1-1.8,4.2-2.9,6.2c-1.1,2-2.2,4-3.5,5.8c-1.3,1.9-2.6,3.7-4.1,5.5c-1.4,1.8-3,3.4-4.6,5.1c-1.6,1.6-3.3,3.1-5.1,4.6
		c-1.8,1.4-3.6,2.8-5.5,4.1c-1.9,1.3-3.8,2.4-5.9,3.5c-2,1.1-4.1,2-6.2,2.9c-2.1,0.9-4.2,1.6-6.4,2.3c-2.2,0.7-4.4,1.2-6.6,1.7
		c-2.2,0.4-4.5,0.8-6.7,1c-2.3,0.2-4.5,0.3-6.8,0.3c-2.3,0-4.5-0.1-6.8-0.3c-2.3-0.2-4.5-0.6-6.7-1c-2.2-0.4-4.4-1-6.6-1.7
		c-2.2-0.7-4.3-1.4-6.4-2.3c-2.1-0.9-4.2-1.8-6.2-2.9c-2-1.1-4-2.2-5.9-3.5c-1.9-1.3-3.7-2.6-5.5-4.1c-1.8-1.4-3.4-3-5.1-4.6
		c-1.6-1.6-3.1-3.3-4.6-5.1c-1.4-1.8-2.8-3.6-4.1-5.5c-1.3-1.9-2.4-3.8-3.5-5.8c-1.1-2-2-4.1-2.9-6.2c-0.9-2.1-1.6-4.2-2.3-6.4
		c-0.7-2.2-1.2-4.4-1.7-6.6c-0.4-2.2-0.8-4.5-1-6.7c-0.2-2.3-0.3-4.5-0.3-6.8c0-2.3,0.1-4.5,0.3-6.8c0.2-2.3,0.6-4.5,1-6.7
		c0.4-2.2,1-4.4,1.7-6.6c0.7-2.2,1.4-4.3,2.3-6.4c0.9-2.1,1.8-4.2,2.9-6.2c1.1-2,2.2-4,3.5-5.8c1.3-1.9,2.6-3.7,4.1-5.5
		c1.4-1.8,3-3.4,4.6-5.1c1.6-1.6,3.3-3.1,5.1-4.6c1.8-1.4,3.6-2.8,5.5-4.1c1.9-1.3,3.8-2.4,5.9-3.5c2-1.1,4.1-2,6.2-2.9
		c2.1-0.9,4.2-1.6,6.4-2.3c2.2-0.7,4.4-1.2,6.6-1.7c2.2-0.4,4.5-0.8,6.7-1c2.3-0.2,4.5-0.3,6.8-0.3c2.3,0,4.5,0.1,6.8,0.3
		c2.3,0.2,4.5,0.6,6.7,1c2.2,0.4,4.4,1,6.6,1.7c2.2,0.7,4.3,1.4,6.4,2.3c2.1,0.9,4.2,1.8,6.2,2.9c2,1.1,4,2.2,5.9,3.5
		c1.9,1.3,3.7,2.6,5.5,4.1c1.8,1.4,3.4,3,5.1,4.6c1.6,1.6,3.1,3.3,4.6,5.1c1.4,1.8,2.8,3.6,4.1,5.5c1.3,1.9,2.4,3.8,3.5,5.8
		c1.1,2,2,4.1,2.9,6.2c0.9,2.1,1.6,4.2,2.3,6.4c0.7,2.2,1.2,4.4,1.7,6.6c0.4,2.2,0.8,4.5,1,6.7
		C625.8,1836.8,625.9,1839.1,625.9,1841.4L625.9,1841.4z"/>
	<path class="st0" d="M596.5,2076.4c0,2.3-0.1,4.5-0.3,6.8c-0.2,2.3-0.6,4.5-1,6.7c-0.4,2.2-1,4.4-1.7,6.6c-0.7,2.2-1.4,4.3-2.3,6.4
		c-0.9,2.1-1.8,4.2-2.9,6.2c-1.1,2-2.2,4-3.5,5.8c-1.3,1.9-2.6,3.7-4.1,5.5c-1.4,1.8-3,3.4-4.6,5.1c-1.6,1.6-3.3,3.1-5.1,4.6
		c-1.8,1.4-3.6,2.8-5.5,4.1c-1.9,1.3-3.8,2.4-5.9,3.5c-2,1.1-4.1,2-6.2,2.9c-2.1,0.9-4.2,1.6-6.4,2.3c-2.2,0.7-4.4,1.2-6.6,1.7
		c-2.2,0.4-4.5,0.8-6.7,1c-2.3,0.2-4.5,0.3-6.8,0.3c-2.3,0-4.5-0.1-6.8-0.3c-2.3-0.2-4.5-0.6-6.7-1c-2.2-0.4-4.4-1-6.6-1.7
		c-2.2-0.7-4.3-1.4-6.4-2.3c-2.1-0.9-4.2-1.8-6.2-2.9c-2-1.1-4-2.2-5.9-3.5c-1.9-1.3-3.7-2.6-5.5-4.1c-1.8-1.4-3.4-3-5.1-4.6
		c-1.6-1.6-3.1-3.3-4.6-5.1c-1.4-1.8-2.8-3.6-4.1-5.5c-1.3-1.9-2.4-3.8-3.5-5.8c-1.1-2-2-4.1-2.9-6.2c-0.9-2.1-1.6-4.2-2.3-6.4
		c-0.7-2.2-1.2-4.4-1.7-6.6c-0.4-2.2-0.8-4.5-1-6.7c-0.2-2.3-0.3-4.5-0.3-6.8s0.1-4.5,0.3-6.8c0.2-2.3,0.6-4.5,1-6.7
		c0.4-2.2,1-4.4,1.7-6.6c0.7-2.2,1.4-4.3,2.3-6.4c0.9-2.1,1.8-4.2,2.9-6.2c1.1-2,2.2-4,3.5-5.8c1.3-1.9,2.6-3.7,4.1-5.5
		c1.4-1.8,3-3.4,4.6-5.1c1.6-1.6,3.3-3.1,5.1-4.6c1.8-1.4,3.6-2.8,5.5-4.1c1.9-1.3,3.8-2.4,5.9-3.5c2-1.1,4.1-2,6.2-2.9
		c2.1-0.9,4.2-1.6,6.4-2.3c2.2-0.7,4.4-1.2,6.6-1.7c2.2-0.4,4.5-0.8,6.7-1c2.3-0.2,4.5-0.3,6.8-0.3c2.3,0,4.5,0.1,6.8,0.3
		c2.3,0.2,4.5,0.6,6.7,1c2.2,0.4,4.4,1,6.6,1.7c2.2,0.7,4.3,1.4,6.4,2.3c2.1,0.9,4.2,1.8,6.2,2.9c2,1.1,4,2.2,5.9,3.5
		c1.9,1.3,3.7,2.6,5.5,4.1c1.8,1.4,3.4,3,5.1,4.6c1.6,1.6,3.1,3.3,4.6,5.1c1.4,1.8,2.8,3.6,4.1,5.5c1.3,1.9,2.4,3.8,3.5,5.8
		c1.1,2,2,4.1,2.9,6.2c0.9,2.1,1.6,4.2,2.3,6.4c0.7,2.2,1.2,4.4,1.7,6.6c0.4,2.2,0.8,4.5,1,6.7
		C596.4,2071.8,596.5,2074.1,596.5,2076.4L596.5,2076.4z"/>
	<path class="st0" d="M711.4,1637.3c0,2.3-0.1,4.5-0.3,6.8c-0.2,2.3-0.6,4.5-1,6.7c-0.4,2.2-1,4.4-1.7,6.6c-0.7,2.2-1.4,4.3-2.3,6.4
		c-0.9,2.1-1.8,4.2-2.9,6.2c-1.1,2-2.2,4-3.5,5.8c-1.3,1.9-2.6,3.7-4.1,5.5c-1.4,1.8-3,3.4-4.6,5.1c-1.6,1.6-3.3,3.1-5.1,4.6
		c-1.8,1.4-3.6,2.8-5.5,4.1c-1.9,1.3-3.8,2.4-5.9,3.5c-2,1.1-4.1,2-6.2,2.9c-2.1,0.9-4.2,1.6-6.4,2.3c-2.2,0.7-4.4,1.2-6.6,1.7
		c-2.2,0.4-4.5,0.8-6.7,1c-2.3,0.2-4.5,0.3-6.8,0.3c-2.3,0-4.5-0.1-6.8-0.3c-2.3-0.2-4.5-0.6-6.7-1c-2.2-0.4-4.4-1-6.6-1.7
		c-2.2-0.7-4.3-1.4-6.4-2.3c-2.1-0.9-4.2-1.8-6.2-2.9c-2-1.1-4-2.2-5.9-3.5c-1.9-1.3-3.7-2.6-5.5-4.1c-1.8-1.4-3.4-3-5.1-4.6
		c-1.6-1.6-3.1-3.3-4.6-5.1c-1.4-1.8-2.8-3.6-4.1-5.5c-1.3-1.9-2.4-3.8-3.5-5.8c-1.1-2-2-4.1-2.9-6.2c-0.9-2.1-1.6-4.2-2.3-6.4
		c-0.7-2.2-1.2-4.4-1.7-6.6c-0.4-2.2-0.8-4.5-1-6.7c-0.2-2.3-0.3-4.5-0.3-6.8s0.1-4.5,0.3-6.8c0.2-2.3,0.6-4.5,1-6.7
		c0.4-2.2,1-4.4,1.7-6.6c0.7-2.2,1.4-4.3,2.3-6.4c0.9-2.1,1.8-4.2,2.9-6.2c1.1-2,2.2-4,3.5-5.8c1.3-1.9,2.6-3.7,4.1-5.5
		c1.4-1.8,3-3.4,4.6-5.1c1.6-1.6,3.3-3.1,5.1-4.6c1.8-1.4,3.6-2.8,5.5-4.1c1.9-1.3,3.8-2.4,5.9-3.5c2-1.1,4.1-2,6.2-2.9
		c2.1-0.9,4.2-1.6,6.4-2.3c2.2-0.7,4.4-1.2,6.6-1.7c2.2-0.4,4.5-0.8,6.7-1c2.3-0.2,4.5-0.3,6.8-0.3c2.3,0,4.5,0.1,6.8,0.3
		c2.3,0.2,4.5,0.6,6.7,1c2.2,0.4,4.4,1,6.6,1.7c2.2,0.7,4.3,1.4,6.4,2.3c2.1,0.9,4.2,1.8,6.2,2.9c2,1.1,4,2.2,5.9,3.5
		c1.9,1.3,3.7,2.6,5.5,4.1c1.8,1.4,3.4,3,5.1,4.6c1.6,1.6,3.1,3.3,4.6,5.1c1.4,1.8,2.8,3.6,4.1,5.5c1.3,1.9,2.4,3.8,3.5,5.8
		c1.1,2,2,4.1,2.9,6.2c0.9,2.1,1.6,4.2,2.3,6.4c0.7,2.2,1.2,4.4,1.7,6.6c0.4,2.2,0.8,4.5,1,6.7
		C711.2,1632.7,711.4,1635,711.4,1637.3L711.4,1637.3z"/>
	<path class="st0" d="M1594.7,1763.7c0,2.3-0.1,4.5-0.3,6.8c-0.2,2.3-0.6,4.5-1,6.7c-0.4,2.2-1,4.4-1.7,6.6
		c-0.7,2.2-1.4,4.3-2.3,6.4c-0.9,2.1-1.8,4.2-2.9,6.2c-1.1,2-2.2,4-3.5,5.8c-1.3,1.9-2.6,3.7-4.1,5.5c-1.4,1.8-3,3.4-4.6,5.1
		c-1.6,1.6-3.3,3.1-5.1,4.6c-1.8,1.4-3.6,2.8-5.5,4.1c-1.9,1.3-3.8,2.4-5.9,3.5c-2,1.1-4.1,2-6.2,2.9c-2.1,0.9-4.2,1.6-6.4,2.3
		c-2.2,0.7-4.4,1.2-6.6,1.7c-2.2,0.4-4.5,0.8-6.7,1c-2.3,0.2-4.5,0.3-6.8,0.3c-2.3,0-4.5-0.1-6.8-0.3c-2.3-0.2-4.5-0.6-6.7-1
		c-2.2-0.4-4.4-1-6.6-1.7c-2.2-0.7-4.3-1.4-6.4-2.3c-2.1-0.9-4.2-1.8-6.2-2.9c-2-1.1-4-2.2-5.9-3.5c-1.9-1.3-3.7-2.6-5.5-4.1
		c-1.8-1.4-3.4-3-5.1-4.6c-1.6-1.6-3.1-3.3-4.6-5.1c-1.4-1.8-2.8-3.6-4.1-5.5c-1.3-1.9-2.4-3.8-3.5-5.8c-1.1-2-2-4.1-2.9-6.2
		c-0.9-2.1-1.6-4.2-2.3-6.4c-0.7-2.2-1.2-4.4-1.7-6.6c-0.4-2.2-0.8-4.5-1-6.7c-0.2-2.3-0.3-4.5-0.3-6.8s0.1-4.5,0.3-6.8
		c0.2-2.3,0.6-4.5,1-6.7c0.4-2.2,1-4.4,1.7-6.6c0.7-2.2,1.4-4.3,2.3-6.4c0.9-2.1,1.8-4.2,2.9-6.2c1.1-2,2.2-4,3.5-5.8
		c1.3-1.9,2.6-3.7,4.1-5.5c1.4-1.8,3-3.4,4.6-5.1c1.6-1.6,3.3-3.1,5.1-4.6c1.8-1.4,3.6-2.8,5.5-4.1c1.9-1.3,3.8-2.4,5.9-3.5
		c2-1.1,4.1-2,6.2-2.9c2.1-0.9,4.2-1.6,6.4-2.3c2.2-0.7,4.4-1.2,6.6-1.7c2.2-0.4,4.5-0.8,6.7-1c2.3-0.2,4.5-0.3,6.8-0.3
		c2.3,0,4.5,0.1,6.8,0.3c2.3,0.2,4.5,0.6,6.7,1c2.2,0.4,4.4,1,6.6,1.7c2.2,0.7,4.3,1.4,6.4,2.3c2.1,0.9,4.2,1.8,6.2,2.9
		c2,1.1,4,2.2,5.9,3.5c1.9,1.3,3.7,2.6,5.5,4.1c1.8,1.4,3.4,3,5.1,4.6c1.6,1.6,3.1,3.3,4.6,5.1c1.4,1.8,2.8,3.6,4.1,5.5
		c1.3,1.9,2.4,3.8,3.5,5.8c1.1,2,2,4.1,2.9,6.2c0.9,2.1,1.6,4.2,2.3,6.4c0.7,2.2,1.2,4.4,1.7,6.6c0.4,2.2,0.8,4.5,1,6.7
		C1594.6,1759.1,1594.7,1761.4,1594.7,1763.7L1594.7,1763.7z"/>
	<path class="st0" d="M1992.5,1899.8c0,2.3-0.1,4.5-0.3,6.8c-0.2,2.3-0.6,4.5-1,6.7c-0.4,2.2-1,4.4-1.7,6.6
		c-0.7,2.2-1.4,4.3-2.3,6.4c-0.9,2.1-1.8,4.2-2.9,6.2c-1.1,2-2.2,4-3.5,5.8c-1.3,1.9-2.6,3.7-4.1,5.5c-1.4,1.8-3,3.4-4.6,5.1
		c-1.6,1.6-3.3,3.1-5.1,4.6c-1.8,1.4-3.6,2.8-5.5,4.1c-1.9,1.3-3.8,2.4-5.9,3.5c-2,1.1-4.1,2-6.2,2.9c-2.1,0.9-4.2,1.6-6.4,2.3
		c-2.2,0.7-4.4,1.2-6.6,1.7c-2.2,0.4-4.5,0.8-6.7,1c-2.3,0.2-4.5,0.3-6.8,0.3c-2.3,0-4.5-0.1-6.8-0.3c-2.3-0.2-4.5-0.6-6.7-1
		c-2.2-0.4-4.4-1-6.6-1.7c-2.2-0.7-4.3-1.4-6.4-2.3c-2.1-0.9-4.2-1.8-6.2-2.9c-2-1.1-4-2.2-5.9-3.5c-1.9-1.3-3.7-2.6-5.5-4.1
		c-1.8-1.4-3.4-3-5.1-4.6c-1.6-1.6-3.1-3.3-4.6-5.1c-1.4-1.8-2.8-3.6-4.1-5.5c-1.3-1.9-2.4-3.8-3.5-5.8c-1.1-2-2-4.1-2.9-6.2
		c-0.9-2.1-1.6-4.2-2.3-6.4c-0.7-2.2-1.2-4.4-1.7-6.6c-0.4-2.2-0.8-4.5-1-6.7c-0.2-2.3-0.3-4.5-0.3-6.8s0.1-4.5,0.3-6.8
		c0.2-2.3,0.6-4.5,1-6.7c0.4-2.2,1-4.4,1.7-6.6c0.7-2.2,1.4-4.3,2.3-6.4c0.9-2.1,1.8-4.2,2.9-6.2c1.1-2,2.2-4,3.5-5.8
		c1.3-1.9,2.6-3.7,4.1-5.5c1.4-1.8,3-3.4,4.6-5.1c1.6-1.6,3.3-3.1,5.1-4.6c1.8-1.4,3.6-2.8,5.5-4.1c1.9-1.3,3.8-2.4,5.9-3.5
		c2-1.1,4.1-2,6.2-2.9c2.1-0.9,4.2-1.6,6.4-2.3c2.2-0.7,4.4-1.2,6.6-1.7c2.2-0.4,4.5-0.8,6.7-1c2.3-0.2,4.5-0.3,6.8-0.3
		c2.3,0,4.5,0.1,6.8,0.3c2.3,0.2,4.5,0.6,6.7,1c2.2,0.4,4.4,1,6.6,1.7c2.2,0.7,4.3,1.4,6.4,2.3c2.1,0.9,4.2,1.8,6.2,2.9
		c2,1.1,4,2.2,5.9,3.5c1.9,1.3,3.7,2.6,5.5,4.1c1.8,1.4,3.4,3,5.1,4.6c1.6,1.6,3.1,3.3,4.6,5.1c1.4,1.8,2.8,3.6,4.1,5.5
		c1.3,1.9,2.4,3.8,3.5,5.8c1.1,2,2,4.1,2.9,6.2c0.9,2.1,1.6,4.2,2.3,6.4c0.7,2.2,1.2,4.4,1.7,6.6c0.4,2.2,0.8,4.5,1,6.7
		C1992.4,1895.2,1992.5,1897.5,1992.5,1899.8L1992.5,1899.8z"/>
	<path class="st0" d="M1964,2180.1c0,2.3-0.1,4.5-0.3,6.8c-0.2,2.3-0.6,4.5-1,6.7c-0.4,2.2-1,4.4-1.7,6.6c-0.7,2.2-1.4,4.3-2.3,6.4
		c-0.9,2.1-1.8,4.2-2.9,6.2c-1.1,2-2.2,4-3.5,5.8c-1.3,1.9-2.6,3.7-4.1,5.5c-1.4,1.8-3,3.4-4.6,5.1c-1.6,1.6-3.3,3.1-5.1,4.6
		c-1.8,1.4-3.6,2.8-5.5,4.1c-1.9,1.3-3.8,2.4-5.9,3.5c-2,1.1-4.1,2-6.2,2.9c-2.1,0.9-4.2,1.6-6.4,2.3c-2.2,0.7-4.4,1.2-6.6,1.7
		c-2.2,0.4-4.5,0.8-6.7,1c-2.3,0.2-4.5,0.3-6.8,0.3c-2.3,0-4.5-0.1-6.8-0.3c-2.3-0.2-4.5-0.6-6.7-1c-2.2-0.4-4.4-1-6.6-1.7
		c-2.2-0.7-4.3-1.4-6.4-2.3c-2.1-0.9-4.2-1.8-6.2-2.9c-2-1.1-4-2.2-5.9-3.5c-1.9-1.3-3.7-2.6-5.5-4.1c-1.8-1.4-3.4-3-5.1-4.6
		c-1.6-1.6-3.1-3.3-4.6-5.1c-1.4-1.8-2.8-3.6-4.1-5.5c-1.3-1.9-2.4-3.8-3.5-5.8s-2-4.1-2.9-6.2c-0.9-2.1-1.6-4.2-2.3-6.4
		c-0.7-2.2-1.2-4.4-1.7-6.6c-0.4-2.2-0.8-4.5-1-6.7c-0.2-2.3-0.3-4.5-0.3-6.8s0.1-4.5,0.3-6.8c0.2-2.3,0.6-4.5,1-6.7
		c0.4-2.2,1-4.4,1.7-6.6c0.7-2.2,1.4-4.3,2.3-6.4c0.9-2.1,1.8-4.2,2.9-6.2c1.1-2,2.2-4,3.5-5.8c1.3-1.9,2.6-3.7,4.1-5.5
		c1.4-1.8,3-3.4,4.6-5.1c1.6-1.6,3.3-3.1,5.1-4.6c1.8-1.4,3.6-2.8,5.5-4.1c1.9-1.3,3.8-2.4,5.9-3.5c2-1.1,4.1-2,6.2-2.9
		c2.1-0.9,4.2-1.6,6.4-2.3c2.2-0.7,4.4-1.2,6.6-1.7c2.2-0.4,4.5-0.8,6.7-1c2.3-0.2,4.5-0.3,6.8-0.3c2.3,0,4.5,0.1,6.8,0.3
		c2.3,0.2,4.5,0.6,6.7,1c2.2,0.4,4.4,1,6.6,1.7c2.2,0.7,4.3,1.4,6.4,2.3c2.1,0.9,4.2,1.8,6.2,2.9c2,1.1,4,2.2,5.9,3.5
		c1.9,1.3,3.7,2.6,5.5,4.1c1.8,1.4,3.4,3,5.1,4.6c1.6,1.6,3.1,3.3,4.6,5.1c1.4,1.8,2.8,3.6,4.1,5.5c1.3,1.9,2.4,3.8,3.5,5.8
		c1.1,2,2,4.1,2.9,6.2c0.9,2.1,1.6,4.2,2.3,6.4c0.7,2.2,1.2,4.4,1.7,6.6c0.4,2.2,0.8,4.5,1,6.7
		C1963.9,2175.6,1964,2177.8,1964,2180.1L1964,2180.1z"/>
	<path class="st0" d="M1786.9,2606.2c0,2.3-0.1,4.5-0.3,6.8c-0.2,2.3-0.6,4.5-1,6.7c-0.4,2.2-1,4.4-1.7,6.6
		c-0.7,2.2-1.4,4.3-2.3,6.4c-0.9,2.1-1.8,4.2-2.9,6.2c-1.1,2-2.2,4-3.5,5.8c-1.3,1.9-2.6,3.7-4.1,5.5c-1.4,1.8-3,3.4-4.6,5.1
		c-1.6,1.6-3.3,3.1-5.1,4.6c-1.8,1.4-3.6,2.8-5.5,4.1c-1.9,1.3-3.8,2.4-5.9,3.5c-2,1.1-4.1,2-6.2,2.9c-2.1,0.9-4.2,1.6-6.4,2.3
		c-2.2,0.7-4.4,1.2-6.6,1.7c-2.2,0.4-4.5,0.8-6.7,1c-2.3,0.2-4.5,0.3-6.8,0.3c-2.3,0-4.5-0.1-6.8-0.3c-2.3-0.2-4.5-0.6-6.7-1
		c-2.2-0.4-4.4-1-6.6-1.7c-2.2-0.7-4.3-1.4-6.4-2.3c-2.1-0.9-4.2-1.8-6.2-2.9c-2-1.1-4-2.2-5.9-3.5c-1.9-1.3-3.7-2.6-5.5-4.1
		c-1.8-1.4-3.4-3-5.1-4.6c-1.6-1.6-3.1-3.3-4.6-5.1c-1.4-1.8-2.8-3.6-4.1-5.5c-1.3-1.9-2.4-3.8-3.5-5.8s-2-4.1-2.9-6.2
		c-0.9-2.1-1.6-4.2-2.3-6.4c-0.7-2.2-1.2-4.4-1.7-6.6c-0.4-2.2-0.8-4.5-1-6.7c-0.2-2.3-0.3-4.5-0.3-6.8c0-2.3,0.1-4.5,0.3-6.8
		c0.2-2.3,0.6-4.5,1-6.7c0.4-2.2,1-4.4,1.7-6.6c0.7-2.2,1.4-4.3,2.3-6.4c0.9-2.1,1.8-4.2,2.9-6.2c1.1-2,2.2-4,3.5-5.8
		c1.3-1.9,2.6-3.7,4.1-5.5c1.4-1.8,3-3.4,4.6-5.1c1.6-1.6,3.3-3.1,5.1-4.6c1.8-1.4,3.6-2.8,5.5-4.1c1.9-1.3,3.8-2.4,5.9-3.5
		c2-1.1,4.1-2,6.2-2.9c2.1-0.9,4.2-1.6,6.4-2.3c2.2-0.7,4.4-1.2,6.6-1.7c2.2-0.4,4.5-0.8,6.7-1c2.3-0.2,4.5-0.3,6.8-0.3
		c2.3,0,4.5,0.1,6.8,0.3c2.3,0.2,4.5,0.6,6.7,1c2.2,0.4,4.4,1,6.6,1.7c2.2,0.7,4.3,1.4,6.4,2.3c2.1,0.9,4.2,1.8,6.2,2.9
		c2,1.1,4,2.2,5.9,3.5c1.9,1.3,3.7,2.6,5.5,4.1c1.8,1.4,3.4,3,5.1,4.6c1.6,1.6,3.1,3.3,4.6,5.1c1.4,1.8,2.8,3.6,4.1,5.5
		c1.3,1.9,2.4,3.8,3.5,5.8c1.1,2,2,4.1,2.9,6.2c0.9,2.1,1.6,4.2,2.3,6.4c0.7,2.2,1.2,4.4,1.7,6.6c0.4,2.2,0.8,4.5,1,6.7
		C1786.8,2601.6,1786.9,2603.9,1786.9,2606.2L1786.9,2606.2z"/>
	<path class="st0" d="M1684.5,1454.4c0,2.3-0.1,4.5-0.3,6.8c-0.2,2.3-0.6,4.5-1,6.7c-0.4,2.2-1,4.4-1.7,6.6
		c-0.7,2.2-1.4,4.3-2.3,6.4c-0.9,2.1-1.8,4.2-2.9,6.2c-1.1,2-2.2,4-3.5,5.8c-1.3,1.9-2.6,3.7-4.1,5.5c-1.4,1.8-3,3.4-4.6,5.1
		c-1.6,1.6-3.3,3.1-5.1,4.6c-1.8,1.4-3.6,2.8-5.5,4.1c-1.9,1.3-3.8,2.4-5.9,3.5c-2,1.1-4.1,2-6.2,2.9c-2.1,0.9-4.2,1.6-6.4,2.3
		c-2.2,0.7-4.4,1.2-6.6,1.7c-2.2,0.4-4.5,0.8-6.7,1c-2.3,0.2-4.5,0.3-6.8,0.3c-2.3,0-4.5-0.1-6.8-0.3c-2.3-0.2-4.5-0.6-6.7-1
		c-2.2-0.4-4.4-1-6.6-1.7c-2.2-0.7-4.3-1.4-6.4-2.3c-2.1-0.9-4.2-1.8-6.2-2.9c-2-1.1-4-2.2-5.9-3.5c-1.9-1.3-3.7-2.6-5.5-4.1
		c-1.8-1.4-3.4-3-5.1-4.6c-1.6-1.6-3.1-3.3-4.6-5.1c-1.4-1.8-2.8-3.6-4.1-5.5c-1.3-1.9-2.4-3.8-3.5-5.8c-1.1-2-2-4.1-2.9-6.2
		c-0.9-2.1-1.6-4.2-2.3-6.4c-0.7-2.2-1.2-4.4-1.7-6.6c-0.4-2.2-0.8-4.5-1-6.7c-0.2-2.3-0.3-4.5-0.3-6.8c0-2.3,0.1-4.5,0.3-6.8
		c0.2-2.3,0.6-4.5,1-6.7c0.4-2.2,1-4.4,1.7-6.6c0.7-2.2,1.4-4.3,2.3-6.4c0.9-2.1,1.8-4.2,2.9-6.2c1.1-2,2.2-4,3.5-5.8
		c1.3-1.9,2.6-3.7,4.1-5.5c1.4-1.8,3-3.4,4.6-5.1c1.6-1.6,3.3-3.1,5.1-4.6c1.8-1.4,3.6-2.8,5.5-4.1c1.9-1.3,3.8-2.4,5.9-3.5
		c2-1.1,4.1-2,6.2-2.9c2.1-0.9,4.2-1.6,6.4-2.3c2.2-0.7,4.4-1.2,6.6-1.7c2.2-0.4,4.5-0.8,6.7-1c2.3-0.2,4.5-0.3,6.8-0.3
		c2.3,0,4.5,0.1,6.8,0.3c2.3,0.2,4.5,0.6,6.7,1c2.2,0.4,4.4,1,6.6,1.7c2.2,0.7,4.3,1.4,6.4,2.3c2.1,0.9,4.2,1.8,6.2,2.9
		c2,1.1,4,2.2,5.9,3.5c1.9,1.3,3.7,2.6,5.5,4.1c1.8,1.4,3.4,3,5.1,4.6c1.6,1.6,3.1,3.3,4.6,5.1c1.4,1.8,2.8,3.6,4.1,5.5
		c1.3,1.9,2.4,3.8,3.5,5.8c1.1,2,2,4.1,2.9,6.2c0.9,2.1,1.6,4.2,2.3,6.4c0.7,2.2,1.2,4.4,1.7,6.6c0.4,2.2,0.8,4.5,1,6.7
		C1684.4,1449.8,1684.5,1452.1,1684.5,1454.4L1684.5,1454.4z"/>
	<path class="st0" d="M1861.2,1668.1c0,2.3-0.1,4.5-0.3,6.8c-0.2,2.3-0.6,4.5-1,6.7c-0.4,2.2-1,4.4-1.7,6.6
		c-0.7,2.2-1.4,4.3-2.3,6.4c-0.9,2.1-1.8,4.2-2.9,6.2c-1.1,2-2.2,4-3.5,5.8c-1.3,1.9-2.6,3.7-4.1,5.5c-1.4,1.8-3,3.4-4.6,5.1
		c-1.6,1.6-3.3,3.1-5.1,4.6c-1.8,1.4-3.6,2.8-5.5,4.1c-1.9,1.3-3.8,2.4-5.9,3.5c-2,1.1-4.1,2-6.2,2.9c-2.1,0.9-4.2,1.6-6.4,2.3
		c-2.2,0.7-4.4,1.2-6.6,1.7c-2.2,0.4-4.5,0.8-6.7,1c-2.3,0.2-4.5,0.3-6.8,0.3c-2.3,0-4.5-0.1-6.8-0.3c-2.3-0.2-4.5-0.6-6.7-1
		c-2.2-0.4-4.4-1-6.6-1.7c-2.2-0.7-4.3-1.4-6.4-2.3c-2.1-0.9-4.2-1.8-6.2-2.9c-2-1.1-4-2.2-5.9-3.5c-1.9-1.3-3.7-2.6-5.5-4.1
		c-1.8-1.4-3.4-3-5.1-4.6c-1.6-1.6-3.1-3.3-4.6-5.1c-1.4-1.8-2.8-3.6-4.1-5.5c-1.3-1.9-2.4-3.8-3.5-5.8c-1.1-2-2-4.1-2.9-6.2
		c-0.9-2.1-1.6-4.2-2.3-6.4c-0.7-2.2-1.2-4.4-1.7-6.6c-0.4-2.2-0.8-4.5-1-6.7c-0.2-2.3-0.3-4.5-0.3-6.8s0.1-4.5,0.3-6.8
		c0.2-2.3,0.6-4.5,1-6.7c0.4-2.2,1-4.4,1.7-6.6c0.7-2.2,1.4-4.3,2.3-6.4s1.8-4.2,2.9-6.2s2.2-4,3.5-5.8c1.3-1.9,2.6-3.7,4.1-5.5
		c1.4-1.8,3-3.4,4.6-5.1c1.6-1.6,3.3-3.1,5.1-4.6c1.8-1.4,3.6-2.8,5.5-4.1c1.9-1.3,3.8-2.4,5.9-3.5c2-1.1,4.1-2,6.2-2.9
		c2.1-0.9,4.2-1.6,6.4-2.3c2.2-0.7,4.4-1.2,6.6-1.7c2.2-0.4,4.5-0.8,6.7-1c2.3-0.2,4.5-0.3,6.8-0.3c2.3,0,4.5,0.1,6.8,0.3
		c2.3,0.2,4.5,0.6,6.7,1c2.2,0.4,4.4,1,6.6,1.7s4.3,1.4,6.4,2.3c2.1,0.9,4.2,1.8,6.2,2.9c2,1.1,4,2.2,5.9,3.5
		c1.9,1.3,3.7,2.6,5.5,4.1c1.8,1.4,3.4,3,5.1,4.6c1.6,1.6,3.1,3.3,4.6,5.1c1.4,1.8,2.8,3.6,4.1,5.5c1.3,1.9,2.4,3.8,3.5,5.8
		c1.1,2,2,4.1,2.9,6.2c0.9,2.1,1.6,4.2,2.3,6.4c0.7,2.2,1.2,4.4,1.7,6.6c0.4,2.2,0.8,4.5,1,6.7
		C1861.1,1663.6,1861.2,1665.9,1861.2,1668.1L1861.2,1668.1z"/>
	<path class="st0" d="M1223.5,1893.5c0,2.3-0.1,4.5-0.3,6.8c-0.2,2.3-0.6,4.5-1,6.7c-0.4,2.2-1,4.4-1.7,6.6
		c-0.7,2.2-1.4,4.3-2.3,6.4c-0.9,2.1-1.8,4.2-2.9,6.2c-1.1,2-2.2,4-3.5,5.8c-1.3,1.9-2.6,3.7-4.1,5.5c-1.4,1.8-3,3.4-4.6,5.1
		c-1.6,1.6-3.3,3.1-5.1,4.6c-1.8,1.4-3.6,2.8-5.5,4.1c-1.9,1.3-3.8,2.4-5.9,3.5c-2,1.1-4.1,2-6.2,2.9c-2.1,0.9-4.2,1.6-6.4,2.3
		c-2.2,0.7-4.4,1.2-6.6,1.7c-2.2,0.4-4.5,0.8-6.7,1c-2.3,0.2-4.5,0.3-6.8,0.3c-2.3,0-4.5-0.1-6.8-0.3c-2.3-0.2-4.5-0.6-6.7-1
		c-2.2-0.4-4.4-1-6.6-1.7c-2.2-0.7-4.3-1.4-6.4-2.3c-2.1-0.9-4.2-1.8-6.2-2.9c-2-1.1-4-2.2-5.9-3.5c-1.9-1.3-3.7-2.6-5.5-4.1
		c-1.8-1.4-3.4-3-5.1-4.6c-1.6-1.6-3.1-3.3-4.6-5.1c-1.4-1.8-2.8-3.6-4.1-5.5c-1.3-1.9-2.4-3.8-3.5-5.8c-1.1-2-2-4.1-2.9-6.2
		s-1.6-4.2-2.3-6.4c-0.7-2.2-1.2-4.4-1.7-6.6c-0.4-2.2-0.8-4.5-1-6.7c-0.2-2.3-0.3-4.5-0.3-6.8c0-2.3,0.1-4.5,0.3-6.8
		c0.2-2.3,0.6-4.5,1-6.7c0.4-2.2,1-4.4,1.7-6.6c0.7-2.2,1.4-4.3,2.3-6.4c0.9-2.1,1.8-4.2,2.9-6.2c1.1-2,2.2-4,3.5-5.8
		c1.3-1.9,2.6-3.7,4.1-5.5c1.4-1.8,3-3.4,4.6-5.1c1.6-1.6,3.3-3.1,5.1-4.6c1.8-1.4,3.6-2.8,5.5-4.1c1.9-1.3,3.8-2.4,5.9-3.5
		c2-1.1,4.1-2,6.2-2.9c2.1-0.9,4.2-1.6,6.4-2.3c2.2-0.7,4.4-1.2,6.6-1.7c2.2-0.4,4.5-0.8,6.7-1c2.3-0.2,4.5-0.3,6.8-0.3
		c2.3,0,4.5,0.1,6.8,0.3c2.3,0.2,4.5,0.6,6.7,1c2.2,0.4,4.4,1,6.6,1.7c2.2,0.7,4.3,1.4,6.4,2.3c2.1,0.9,4.2,1.8,6.2,2.9
		c2,1.1,4,2.2,5.9,3.5c1.9,1.3,3.7,2.6,5.5,4.1c1.8,1.4,3.4,3,5.1,4.6c1.6,1.6,3.1,3.3,4.6,5.1c1.4,1.8,2.8,3.6,4.1,5.5
		c1.3,1.9,2.4,3.8,3.5,5.8c1.1,2,2,4.1,2.9,6.2c0.9,2.1,1.6,4.2,2.3,6.4c0.7,2.2,1.2,4.4,1.7,6.6c0.4,2.2,0.8,4.5,1,6.7
		C1223.4,1888.9,1223.5,1891.2,1223.5,1893.5L1223.5,1893.5z"/>
	<path class="st0" d="M1505,1362.2c0,2.3-0.1,4.5-0.3,6.8c-0.2,2.3-0.6,4.5-1,6.7c-0.4,2.2-1,4.4-1.7,6.6c-0.7,2.2-1.4,4.3-2.3,6.4
		c-0.9,2.1-1.8,4.2-2.9,6.2c-1.1,2-2.2,4-3.5,5.8c-1.3,1.9-2.6,3.7-4.1,5.5c-1.4,1.8-3,3.4-4.6,5.1c-1.6,1.6-3.3,3.1-5.1,4.6
		c-1.8,1.4-3.6,2.8-5.5,4.1c-1.9,1.3-3.8,2.4-5.9,3.5c-2,1.1-4.1,2-6.2,2.9c-2.1,0.9-4.2,1.6-6.4,2.3c-2.2,0.7-4.4,1.2-6.6,1.7
		c-2.2,0.4-4.5,0.8-6.7,1c-2.3,0.2-4.5,0.3-6.8,0.3c-2.3,0-4.5-0.1-6.8-0.3c-2.3-0.2-4.5-0.6-6.7-1c-2.2-0.4-4.4-1-6.6-1.7
		c-2.2-0.7-4.3-1.4-6.4-2.3c-2.1-0.9-4.2-1.8-6.2-2.9c-2-1.1-4-2.2-5.9-3.5c-1.9-1.3-3.7-2.6-5.5-4.1c-1.8-1.4-3.4-3-5.1-4.6
		c-1.6-1.6-3.1-3.3-4.6-5.1c-1.4-1.8-2.8-3.6-4.1-5.5c-1.3-1.9-2.4-3.8-3.5-5.8c-1.1-2-2-4.1-2.9-6.2c-0.9-2.1-1.6-4.2-2.3-6.4
		c-0.7-2.2-1.2-4.4-1.7-6.6c-0.4-2.2-0.8-4.5-1-6.7c-0.2-2.3-0.3-4.5-0.3-6.8c0-2.3,0.1-4.5,0.3-6.8c0.2-2.3,0.6-4.5,1-6.7
		c0.4-2.2,1-4.4,1.7-6.6c0.7-2.2,1.4-4.3,2.3-6.4c0.9-2.1,1.8-4.2,2.9-6.2c1.1-2,2.2-4,3.5-5.8c1.3-1.9,2.6-3.7,4.1-5.5
		c1.4-1.8,3-3.4,4.6-5.1c1.6-1.6,3.3-3.1,5.1-4.6c1.8-1.4,3.6-2.8,5.5-4.1c1.9-1.3,3.8-2.4,5.9-3.5c2-1.1,4.1-2,6.2-2.9
		c2.1-0.9,4.2-1.6,6.4-2.3c2.2-0.7,4.4-1.2,6.6-1.7c2.2-0.4,4.5-0.8,6.7-1c2.3-0.2,4.5-0.3,6.8-0.3c2.3,0,4.5,0.1,6.8,0.3
		c2.3,0.2,4.5,0.6,6.7,1c2.2,0.4,4.4,1,6.6,1.7c2.2,0.7,4.3,1.4,6.4,2.3c2.1,0.9,4.2,1.8,6.2,2.9c2,1.1,4,2.2,5.9,3.5
		c1.9,1.3,3.7,2.6,5.5,4.1c1.8,1.4,3.4,3,5.1,4.6c1.6,1.6,3.1,3.3,4.6,5.1c1.4,1.8,2.8,3.6,4.1,5.5c1.3,1.9,2.4,3.8,3.5,5.8
		c1.1,2,2,4.1,2.9,6.2c0.9,2.1,1.6,4.2,2.3,6.4c0.7,2.2,1.2,4.4,1.7,6.6s0.8,4.5,1,6.7C1504.8,1357.7,1505,1360,1505,1362.2
		L1505,1362.2z"/>
	<path class="st0" d="M904.4,1454.4c0,2.3-0.1,4.5-0.3,6.8c-0.2,2.3-0.6,4.5-1,6.7c-0.4,2.2-1,4.4-1.7,6.6c-0.7,2.2-1.4,4.3-2.3,6.4
		c-0.9,2.1-1.8,4.2-2.9,6.2c-1.1,2-2.2,4-3.5,5.8c-1.3,1.9-2.6,3.7-4.1,5.5c-1.4,1.8-3,3.4-4.6,5.1c-1.6,1.6-3.3,3.1-5.1,4.6
		c-1.8,1.4-3.6,2.8-5.5,4.1c-1.9,1.3-3.8,2.4-5.9,3.5c-2,1.1-4.1,2-6.2,2.9c-2.1,0.9-4.2,1.6-6.4,2.3c-2.2,0.7-4.4,1.2-6.6,1.7
		c-2.2,0.4-4.5,0.8-6.7,1c-2.3,0.2-4.5,0.3-6.8,0.3s-4.5-0.1-6.8-0.3c-2.3-0.2-4.5-0.6-6.7-1c-2.2-0.4-4.4-1-6.6-1.7
		c-2.2-0.7-4.3-1.4-6.4-2.3c-2.1-0.9-4.2-1.8-6.2-2.9c-2-1.1-4-2.2-5.9-3.5c-1.9-1.3-3.7-2.6-5.5-4.1c-1.8-1.4-3.4-3-5.1-4.6
		c-1.6-1.6-3.1-3.3-4.6-5.1c-1.4-1.8-2.8-3.6-4.1-5.5c-1.3-1.9-2.4-3.8-3.5-5.8c-1.1-2-2-4.1-2.9-6.2c-0.9-2.1-1.6-4.2-2.3-6.4
		c-0.7-2.2-1.2-4.4-1.7-6.6c-0.4-2.2-0.8-4.5-1-6.7c-0.2-2.3-0.3-4.5-0.3-6.8c0-2.3,0.1-4.5,0.3-6.8c0.2-2.3,0.6-4.5,1-6.7
		c0.4-2.2,1-4.4,1.7-6.6c0.7-2.2,1.4-4.3,2.3-6.4c0.9-2.1,1.8-4.2,2.9-6.2c1.1-2,2.2-4,3.5-5.8c1.3-1.9,2.6-3.7,4.1-5.5
		c1.4-1.8,3-3.4,4.6-5.1c1.6-1.6,3.3-3.1,5.1-4.6c1.8-1.4,3.6-2.8,5.5-4.1c1.9-1.3,3.8-2.4,5.9-3.5c2-1.1,4.1-2,6.2-2.9
		c2.1-0.9,4.2-1.6,6.4-2.3c2.2-0.7,4.4-1.2,6.6-1.7c2.2-0.4,4.5-0.8,6.7-1c2.3-0.2,4.5-0.3,6.8-0.3s4.5,0.1,6.8,0.3
		c2.3,0.2,4.5,0.6,6.7,1c2.2,0.4,4.4,1,6.6,1.7c2.2,0.7,4.3,1.4,6.4,2.3c2.1,0.9,4.2,1.8,6.2,2.9c2,1.1,4,2.2,5.9,3.5
		c1.9,1.3,3.7,2.6,5.5,4.1c1.8,1.4,3.4,3,5.1,4.6c1.6,1.6,3.1,3.3,4.6,5.1c1.4,1.8,2.8,3.6,4.1,5.5c1.3,1.9,2.4,3.8,3.5,5.8
		s2,4.1,2.9,6.2c0.9,2.1,1.6,4.2,2.3,6.4c0.7,2.2,1.2,4.4,1.7,6.6c0.4,2.2,0.8,4.5,1,6.7C904.3,1449.8,904.4,1452.1,904.4,1454.4
		L904.4,1454.4z"/>
	<path class="st0" d="M935.3,3144.2c-17.4,0-30.9-13.5-30.9-30.4v-855l-333.1-359c-11.6-12.5-11.1-32.3,1-43.9
		c13-11.6,32.3-11.1,43.9,1.9L958,2225.9c5.3,5.3,8.2,13,8.2,20.3v867.1C966.2,3131.2,952.7,3144.2,935.3,3144.2L935.3,3144.2z"/>
	<path class="st0" d="M1120.2,3302.9c-17.4,0-30.9-14-30.9-31.4V2128.5l-469.2-469c-12.1-11.6-12.1-31.8,0-43.4
		c12.1-12.1,31.4-12.1,43.4,0l478.4,478.2c5.8,5.8,9.2,13.5,9.2,21.7v1155.6C1151.1,3288.5,1137.1,3302.9,1120.2,3302.9
		L1120.2,3302.9z"/>
	<path class="st0" d="M1326.3,3302.9c-17.4,0-30.9-14-30.9-31.4V1728c0-8.2,2.9-16.4,9.2-21.7l232.2-232.1
		c12.1-11.6,31.4-11.6,43.4,0c12.1,12.1,12.1,31.8,0,43.4l-223,223.4v1530.6C1357.2,3288.5,1343.7,3302.9,1326.3,3302.9
		L1326.3,3302.9z"/>
	<path class="st0" d="M1523.3,3144.2c-17.4,0-31.4-13-31.4-30.4v-810.6c0-8.2,3.9-15.9,9.2-21.2l402.1-401.9
		c12.6-12.5,31.9-12.5,43.9,0c12.1,11.6,12.1,31.4,0,43.4l-392.9,392.8v797.6C1554.2,3131.2,1540.7,3144.2,1523.3,3144.2
		L1523.3,3144.2z"/>
	<path class="st0" d="M1792.2,2065.7c-8.2,0-15.9-2.4-21.7-8.2l-255.4-255.3c-12.1-12.5-12.1-31.8,0-43.9
		c11.6-12.1,31.4-12.1,43.9,0l254.9,254.8c11.6,12.5,11.6,31.4,0,44.4C1807.6,2063.3,1799.4,2065.7,1792.2,2065.7L1792.2,2065.7z"/>
	<path class="st0" d="M912.2,1924.8c-8.2,0-15.9-2.9-22.2-9.2c-12.1-13-12.1-31.8,0-44.4l527.1-526.9c12.1-12.5,31.9-12.5,43.9,0
		c12.1,12.1,12.1,31.4,0,43.4l-527.1,527.9C927.6,1921.5,919.9,1924.8,912.2,1924.8L912.2,1924.8z"/>
	<path class="st0" d="M1084,1752.1c-7.7,0-15.4-2.9-21.2-9.2l-216.3-216.2c-12.1-11.6-12.1-31.8,0-43.4c11.6-11.6,31.4-11.6,43.4,0
		l216.3,216.2c11.6,11.6,11.6,31.8,0,43.4C1099.9,1749.2,1092.2,1752.1,1084,1752.1L1084,1752.1z"/>
	<path class="st0" d="M1155,1374.8c0,2.3-0.1,4.5-0.3,6.8c-0.2,2.3-0.6,4.5-1,6.7c-0.4,2.2-1,4.4-1.7,6.6c-0.7,2.2-1.4,4.3-2.3,6.4
		c-0.9,2.1-1.8,4.2-2.9,6.2c-1.1,2-2.2,4-3.5,5.8c-1.3,1.9-2.6,3.7-4.1,5.5c-1.4,1.8-3,3.4-4.6,5.1c-1.6,1.6-3.3,3.1-5.1,4.6
		c-1.8,1.4-3.6,2.8-5.5,4.1c-1.9,1.3-3.8,2.4-5.9,3.5c-2,1.1-4.1,2-6.2,2.9c-2.1,0.9-4.2,1.6-6.4,2.3c-2.2,0.7-4.4,1.2-6.6,1.7
		c-2.2,0.4-4.5,0.8-6.7,1c-2.3,0.2-4.5,0.3-6.8,0.3s-4.5-0.1-6.8-0.3c-2.3-0.2-4.5-0.6-6.7-1c-2.2-0.4-4.4-1-6.6-1.7
		c-2.2-0.7-4.3-1.4-6.4-2.3c-2.1-0.9-4.2-1.8-6.2-2.9c-2-1.1-4-2.2-5.9-3.5c-1.9-1.3-3.7-2.6-5.5-4.1c-1.8-1.4-3.4-3-5.1-4.6
		c-1.6-1.6-3.1-3.3-4.6-5.1c-1.4-1.8-2.8-3.6-4.1-5.5c-1.3-1.9-2.4-3.8-3.5-5.8c-1.1-2-2-4.1-2.9-6.2c-0.9-2.1-1.6-4.2-2.3-6.4
		c-0.7-2.2-1.2-4.4-1.7-6.6c-0.4-2.2-0.8-4.5-1-6.7c-0.2-2.3-0.3-4.5-0.3-6.8s0.1-4.5,0.3-6.8c0.2-2.3,0.6-4.5,1-6.7
		c0.4-2.2,1-4.4,1.7-6.6c0.7-2.2,1.4-4.3,2.3-6.4c0.9-2.1,1.8-4.2,2.9-6.2c1.1-2,2.2-4,3.5-5.8c1.3-1.9,2.6-3.7,4.1-5.5
		c1.4-1.8,3-3.4,4.6-5.1c1.6-1.6,3.3-3.1,5.1-4.6c1.8-1.4,3.6-2.8,5.5-4.1c1.9-1.3,3.8-2.4,5.9-3.5c2-1.1,4.1-2,6.2-2.9
		c2.1-0.9,4.2-1.6,6.4-2.3c2.2-0.7,4.4-1.2,6.6-1.7c2.2-0.4,4.5-0.8,6.7-1c2.3-0.2,4.5-0.3,6.8-0.3s4.5,0.1,6.8,0.3
		c2.3,0.2,4.5,0.6,6.7,1c2.2,0.4,4.4,1,6.6,1.7c2.2,0.7,4.3,1.4,6.4,2.3c2.1,0.9,4.2,1.8,6.2,2.9c2,1.1,4,2.2,5.9,3.5
		c1.9,1.3,3.7,2.6,5.5,4.1c1.8,1.4,3.4,3,5.1,4.6c1.6,1.6,3.1,3.3,4.6,5.1c1.4,1.8,2.8,3.6,4.1,5.5c1.3,1.9,2.4,3.8,3.5,5.8
		c1.1,2,2,4.1,2.9,6.2c0.9,2.1,1.6,4.2,2.3,6.4c0.7,2.2,1.2,4.4,1.7,6.6c0.4,2.2,0.8,4.5,1,6.7
		C1154.9,1370.2,1155,1372.5,1155,1374.8L1155,1374.8z"/>
	<path class="st0" d="M1249.6,1586.6c-7.7,0-15.4-2.9-21.7-9.2L1097,1446.7c-12.1-11.6-12.1-30.9,0-42.9c12.1-12.1,31.9-12.1,43.9,0
		l130.8,130.8c12.1,11.6,12.1,31.8,0,43.4C1265.5,1583.7,1257.3,1586.6,1249.6,1586.6L1249.6,1586.6z"/>
	<path class="st0" d="M1322.5,2090.4c-8.2,0-15.9-2.9-21.7-9.7L1154,1934.5c-12.1-11.6-12.1-30.9,0-42.9c11.6-12.1,31.4-12.1,43.9,0
		l146.3,146.7c12.1,11.6,12.1,31.4,0,42.9C1337.9,2087.5,1330.2,2090.4,1322.5,2090.4L1322.5,2090.4z"/>
	<path class="st0" d="M1590.4,2040.2c0,2.3-0.1,4.5-0.3,6.8c-0.2,2.3-0.6,4.5-1,6.7s-1,4.4-1.7,6.6c-0.7,2.2-1.4,4.3-2.3,6.4
		c-0.9,2.1-1.8,4.2-2.9,6.2s-2.2,4-3.5,5.8c-1.3,1.9-2.6,3.7-4.1,5.5c-1.4,1.8-3,3.4-4.6,5.1c-1.6,1.6-3.3,3.1-5.1,4.6
		c-1.8,1.4-3.6,2.8-5.5,4.1c-1.9,1.3-3.8,2.4-5.9,3.5c-2,1.1-4.1,2-6.2,2.9c-2.1,0.9-4.2,1.6-6.4,2.3c-2.2,0.7-4.4,1.2-6.6,1.7
		c-2.2,0.4-4.5,0.8-6.7,1c-2.3,0.2-4.5,0.3-6.8,0.3c-2.3,0-4.5-0.1-6.8-0.3c-2.3-0.2-4.5-0.6-6.7-1c-2.2-0.4-4.4-1-6.6-1.7
		c-2.2-0.7-4.3-1.4-6.4-2.3c-2.1-0.9-4.2-1.8-6.2-2.9c-2-1.1-4-2.2-5.9-3.5c-1.9-1.3-3.7-2.6-5.5-4.1c-1.8-1.4-3.4-3-5.1-4.6
		c-1.6-1.6-3.1-3.3-4.6-5.1c-1.4-1.8-2.8-3.6-4.1-5.5c-1.3-1.9-2.4-3.8-3.5-5.8c-1.1-2-2-4.1-2.9-6.2c-0.9-2.1-1.6-4.2-2.3-6.4
		c-0.7-2.2-1.2-4.4-1.7-6.6c-0.4-2.2-0.8-4.5-1-6.7c-0.2-2.3-0.3-4.5-0.3-6.8c0-2.3,0.1-4.5,0.3-6.8c0.2-2.3,0.6-4.5,1-6.7
		c0.4-2.2,1-4.4,1.7-6.6c0.7-2.2,1.4-4.3,2.3-6.4c0.9-2.1,1.8-4.2,2.9-6.2c1.1-2,2.2-4,3.5-5.8c1.3-1.9,2.6-3.7,4.1-5.5
		c1.4-1.8,3-3.4,4.6-5.1c1.6-1.6,3.3-3.1,5.1-4.6c1.8-1.4,3.6-2.8,5.5-4.1c1.9-1.3,3.8-2.4,5.9-3.5c2-1.1,4.1-2,6.2-2.9
		c2.1-0.9,4.2-1.6,6.4-2.3c2.2-0.7,4.4-1.2,6.6-1.7c2.2-0.4,4.5-0.8,6.7-1c2.3-0.2,4.5-0.3,6.8-0.3c2.3,0,4.5,0.1,6.8,0.3
		c2.3,0.2,4.5,0.6,6.7,1c2.2,0.4,4.4,1,6.6,1.7c2.2,0.7,4.3,1.4,6.4,2.3c2.1,0.9,4.2,1.8,6.2,2.9c2,1.1,4,2.2,5.9,3.5
		c1.9,1.3,3.7,2.6,5.5,4.1c1.8,1.4,3.4,3,5.1,4.6c1.6,1.6,3.1,3.3,4.6,5.1c1.4,1.8,2.8,3.6,4.1,5.5c1.3,1.9,2.4,3.8,3.5,5.8
		s2,4.1,2.9,6.2c0.9,2.1,1.6,4.2,2.3,6.4c0.7,2.2,1.2,4.4,1.7,6.6s0.8,4.5,1,6.7C1590.3,2035.6,1590.4,2037.9,1590.4,2040.2
		L1590.4,2040.2z"/>
	<path class="st0" d="M1651.2,2199.4c-7.7,0-15.9-3.4-21.7-9.7l-108.6-108.1c-12.1-12.5-12.1-31.4,0-43.9
		c12.1-12.1,31.9-12.1,43.9,0l108.6,108.1c12.6,12.5,12.6,31.8,0,43.9C1667.2,2196,1659.4,2199.4,1651.2,2199.4L1651.2,2199.4z"/>
	<path class="st0" d="M1611.6,1886.2c-8.2,0-15.9-2.9-21.7-9.7c-12.1-11.6-12.1-31.4,0-43.9l167.5-167c12.6-12.5,31.9-12.5,43.9,0
		c12.1,12.1,12.1,31.4,0,43.4l-167.5,167.4C1627.6,1883.4,1619.4,1886.2,1611.6,1886.2L1611.6,1886.2z"/>
	<path class="st0" d="M934.9,2515.5c-7.7,0-15.4-2.9-21.7-9.2l-408.4-408.7c-12.1-11.6-12.1-30.9,0-42.9c12.1-12.1,31.4-12.1,43.9,0
		l408.4,408.2c12.1,11.6,12.1,31.8,0,43.4C951.3,2512.6,943.1,2515.5,934.9,2515.5L934.9,2515.5z"/>
	<path class="st0" d="M723.4,2471.5c0,2.3-0.1,4.5-0.3,6.8c-0.2,2.3-0.6,4.5-1,6.7c-0.4,2.2-1,4.4-1.7,6.6c-0.7,2.2-1.4,4.3-2.3,6.4
		c-0.9,2.1-1.8,4.2-2.9,6.2c-1.1,2-2.2,4-3.5,5.8c-1.3,1.9-2.6,3.7-4.1,5.5c-1.4,1.8-3,3.4-4.6,5.1c-1.6,1.6-3.3,3.1-5.1,4.6
		c-1.8,1.4-3.6,2.8-5.5,4.1c-1.9,1.3-3.8,2.4-5.9,3.5c-2,1.1-4.1,2-6.2,2.9c-2.1,0.9-4.2,1.6-6.4,2.3c-2.2,0.7-4.4,1.2-6.6,1.7
		c-2.2,0.4-4.5,0.8-6.7,1c-2.3,0.2-4.5,0.3-6.8,0.3c-2.3,0-4.5-0.1-6.8-0.3c-2.3-0.2-4.5-0.6-6.7-1c-2.2-0.4-4.4-1-6.6-1.7
		c-2.2-0.7-4.3-1.4-6.4-2.3c-2.1-0.9-4.2-1.8-6.2-2.9c-2-1.1-4-2.2-5.9-3.5c-1.9-1.3-3.7-2.6-5.5-4.1c-1.8-1.4-3.4-3-5.1-4.6
		c-1.6-1.6-3.1-3.3-4.6-5.1c-1.4-1.8-2.8-3.6-4.1-5.5c-1.3-1.9-2.4-3.8-3.5-5.8c-1.1-2-2-4.1-2.9-6.2c-0.9-2.1-1.6-4.2-2.3-6.4
		c-0.7-2.2-1.2-4.4-1.7-6.6s-0.8-4.5-1-6.7s-0.3-4.5-0.3-6.8s0.1-4.5,0.3-6.8c0.2-2.3,0.6-4.5,1-6.7c0.4-2.2,1-4.4,1.7-6.6
		c0.7-2.2,1.4-4.3,2.3-6.4c0.9-2.1,1.8-4.2,2.9-6.2c1.1-2,2.2-4,3.5-5.8c1.3-1.9,2.6-3.7,4.1-5.5c1.4-1.8,3-3.4,4.6-5.1
		c1.6-1.6,3.3-3.1,5.1-4.6c1.8-1.4,3.6-2.8,5.5-4.1c1.9-1.3,3.8-2.4,5.9-3.5c2-1.1,4.1-2,6.2-2.9c2.1-0.9,4.2-1.6,6.4-2.3
		c2.2-0.7,4.4-1.2,6.6-1.7c2.2-0.4,4.5-0.8,6.7-1c2.3-0.2,4.5-0.3,6.8-0.3c2.3,0,4.5,0.1,6.8,0.3c2.3,0.2,4.5,0.6,6.7,1
		c2.2,0.4,4.4,1,6.6,1.7c2.2,0.7,4.3,1.4,6.4,2.3c2.1,0.9,4.2,1.8,6.2,2.9c2,1.1,4,2.2,5.9,3.5c1.9,1.3,3.7,2.6,5.5,4.1
		c1.8,1.4,3.4,3,5.1,4.6c1.6,1.6,3.1,3.3,4.6,5.1c1.4,1.8,2.8,3.6,4.1,5.5c1.3,1.9,2.4,3.8,3.5,5.8c1.1,2,2,4.1,2.9,6.2
		c0.9,2.1,1.6,4.2,2.3,6.4c0.7,2.2,1.2,4.4,1.7,6.6c0.4,2.2,0.8,4.5,1,6.7C723.3,2467,723.4,2469.3,723.4,2471.5L723.4,2471.5z"/>
	<path class="st0" d="M934.4,2782.8c-8.2,0-15.9-3.4-22.2-9.7l-280.5-279.9c-12.1-12.1-12.1-31.8,0-43.4c12.1-12.5,31.4-12.5,43.9,0
		l280,279.9c12.1,11.6,12.1,31.8,0,43.9C949.8,2779.4,942.1,2782.8,934.4,2782.8L934.4,2782.8z"/>
	<path class="st0" d="M1526.7,2587.4c-8.2,0-15.9-2.9-22.2-9.2c-11.6-12.1-11.6-31.8,0-43.4l349-348.4c11.6-12.5,31.4-12.5,43.4,0
		c11.6,11.6,11.6,30.9,0,43.4l-348.5,348.9C1542.6,2584.5,1534.4,2587.4,1526.7,2587.4L1526.7,2587.4z"/>
	<path class="st0" d="M1523.3,2831c-7.7,0-15.9-2.4-21.7-8.7c-12.1-12.5-12.1-31.4,0-43.9l194.5-194.5c11.6-11.6,31.4-11.6,43.9,0
		c11.6,12.5,11.6,31.8,0,44.4l-194.5,194C1539.2,2829.1,1531,2831,1523.3,2831L1523.3,2831z"/>
	<path class="st1" d="M2803.9,1703.9c-56.9,0-109.7,9.3-158.4,27.9c-47.6,18.6-89,44.5-124.2,77.6c-34.2,31-61.1,70.4-80.7,118
		c-16.6,40.4-25.9,84.3-28,131.9v46.6h136.7v-46.6c2.1-35.2,7.8-63.6,17.1-85.4c12.4-30,29.5-56.9,51.2-80.7
		c25.9-23.8,52.8-41.4,80.7-52.8c32.1-12.4,67.3-18.6,105.6-18.6h195.7v-118H2803.9L2803.9,1703.9L2803.9,1703.9z M2863,2053.1
		l0,29.5h1.6c-2.1,33.1-8.3,63.6-18.6,91.6c-13.5,32.1-30.5,58.5-51.2,79.2c-22.8,22.8-49.7,40.4-80.7,52.8
		c-32.1,12.4-67.3,18.6-105.6,18.6h-195.7v118h195.7c56.9,0,109.7-9.3,158.4-27.9c47.6-18.6,89-44.5,124.2-77.6
		c36.2-36.2,63.1-75.5,80.7-118c18.6-41.4,28-86.9,28-136.6v-29.5H2863L2863,2053.1L2863,2053.1z M3248.1,1924.3
		c18.6-45.5,45.5-84.3,80.7-116.4c32.1-32.1,73.5-57.9,124.2-77.6c50.7-19.7,104-29.5,159.9-29.5h172.4v118h-170.8
		c-40.4,0-76.1,6.7-107.1,20.2c-33.1,13.5-60,31-80.7,52.8c-21.7,20.7-39.3,47.6-52.8,80.7c-12.4,30-18.6,63.6-18.6,100.9
		c0,37.3,6.2,70.9,18.6,100.9c12.4,31,30,57.9,52.8,80.7c20.7,20.7,47.6,37.8,80.7,51.2c33.1,12.4,68.8,18.6,107.1,18.6h170.8v118
		H3613c-58,0-110.8-9.3-158.4-27.9c-49.7-20.7-91.6-47.1-125.8-79.2c-35.2-33.1-62.1-72.4-80.7-118c-19.7-47.6-29.5-96.2-29.5-145.9
		C3218.6,2019,3228.4,1969.8,3248.1,1924.3L3248.1,1924.3L3248.1,1924.3z M4609.9,2442.8l-200.3-279.4c26.9-8.3,50.7-18.1,71.4-29.5
		c22.8-14.5,41.4-30.5,55.9-48.1c16.6-19.7,28.5-40.9,35.7-63.6c9.3-24.8,14-52.8,14-83.8c0-36.2-6.2-68.8-18.6-97.8
		c-12.4-27.9-30.5-52.3-54.4-73c-22.8-19.7-51.8-35.2-87-46.6c-36.2-11.4-74.5-17.1-114.9-17.1h-329.2v118h318.3
		c48.7,0,86.4,10.3,113.4,31c26.9,20.7,40.4,51.7,40.4,93.1c0,38.3-13.5,68.3-40.4,90c-26.9,22.8-64.2,34.1-111.8,34.1h-319.9v372.5
		h128.9v-257.7h163.1l181.7,257.7L4609.9,2442.8L4609.9,2442.8L4609.9,2442.8z M5304.1,2442.8h139.8l-270.2-740.4h-141.3
		l156.8,442.4L5304.1,2442.8L5304.1,2442.8z M4732.6,2442.8h136.7l161.5-394.3l-66.8-177L4732.6,2442.8L4732.6,2442.8z M5951.6,1825
		h234.5v-121.1h-599.4V1825H5951.6L5951.6,1825L5951.6,1825z M5821.2,1946.1h130.4v496.7h-130.4V1946.1L5821.2,1946.1L5821.2,1946.1
		z M6428.3,1924.3c18.6-45.5,45.5-84.3,80.7-116.4c32.1-32.1,73.5-57.9,124.2-77.6c50.7-19.7,104-29.5,159.9-29.5h172.4v118h-170.8
		c-40.4,0-76.1,6.7-107.1,20.2c-33.1,13.5-60,31-80.7,52.8c-21.7,20.7-39.3,47.6-52.8,80.7c-12.4,30-18.6,63.6-18.6,100.9
		c0,37.3,6.2,70.9,18.6,100.9c12.4,31,30,57.9,52.8,80.7c20.7,20.7,47.6,37.8,80.7,51.2c33.1,12.4,68.8,18.6,107.1,18.6h170.8v118
		h-172.4c-58,0-110.8-9.3-158.4-27.9c-49.7-20.7-91.6-47.1-125.8-79.2c-35.2-33.1-62.1-72.4-80.7-118
		c-19.7-47.6-29.5-96.2-29.5-145.9C6398.8,2019,6408.7,1969.8,6428.3,1924.3L6428.3,1924.3L6428.3,1924.3z M7299.5,2011.2v-308.9
		h-130.4v742h130.4V2011.2L7299.5,2011.2z M7655.1,1702.3v308.9h-226.7v121.1h226.7v312H7784v-742L7655.1,1702.3L7655.1,1702.3
		L7655.1,1702.3z"/>
	<path class="st1" d="M2498.7,2915.3c-23,0-45-8.7-59.4-21.3c-15-13-24.7-30.3-26.7-47.3l24-6.7c2.7,14.3,10,26.3,22,36.3
		c11.7,10,25,15,40,15c14,0,27-3.3,37.4-10.7c10.3-7,17-19,17-33.7c0-17-9-28-20.3-34.7c-8-4.7-15-6.7-23-8.3l-32-6.3
		c-6.7-1.3-13.7-3.7-21.3-7c-7.7-3.7-14.3-8-20-13.7c-11.3-11-17-25-17-42c0-13.3,3.7-25.3,11-35.7c7.3-10.7,16.7-18.3,28.4-24
		c11.7-5.3,24-8,37.7-8c52.4,0,75.4,32.3,80.4,58.4l-23.4,7.3c-4-17.3-19.7-42-57.4-42c-26-0.7-51.4,17.7-51,43
		c0,18.7,11.7,33.7,35.4,38.3l30.7,6c20.7,4,36.7,11,47.4,21.3c7.3,6.7,12.7,14.3,16,22.3c3.3,8.3,5,15.7,5,22.3
		C2579.7,2887,2543.7,2916.3,2498.7,2915.3L2498.7,2915.3L2498.7,2915.3z M2871.7,2669.9h36.7V2913h-25.4v-208.4l-90.4,208.4h-23
		l-89.7-206.7V2913h-25.4v-243.1h36.4l90.7,208.4L2871.7,2669.9L2871.7,2669.9z M3179.4,2913l-26.7-62h-132.4l-26.7,62h-26
		l104.7-243.1h29l105.1,243.1H3179.4L3179.4,2913L3179.4,2913z M3143,2827.6l-56.7-131.4l-56.4,131.4H3143L3143,2827.6L3143,2827.6z
		 M3443.4,2913h-31l-72.1-98.4h-49.4v98.4h-25.7v-243.1h84.4c28.7,0,51.7,8,65,21.3c13.3,13.3,20.3,30,20.3,49.7
		c0,41-30.7,64.7-66.7,69.4L3443.4,2913L3443.4,2913z M3290.9,2693.9v97.4h56.4c21.3,0,38-6,47.7-15.7c9.3-9.3,14-21,14-34
		c0-24-14.7-47.7-61-47.7H3290.9L3290.9,2693.9z M3592.6,2693.9V2913h-25.4v-219.1h-81.4v-24H3674v24H3592.6L3592.6,2693.9
		L3592.6,2693.9z M4066.4,2669.9h36.7V2913h-25.4v-208.4l-90.4,208.4h-23l-89.7-206.7V2913h-25.4v-243.1h36.4l90.7,208.4
		L4066.4,2669.9L4066.4,2669.9z M4422.5,2790.9c0,23-5.3,44-15.7,63c-10.7,19-25.4,34-44,45c-19,11-39.7,16.7-63,16.7
		c-17,0-33-3.3-48.4-9.7c-15-6.3-28-15-38.7-26.3c-10.7-10.7-19-23.7-25.4-39c-6-15.3-9.3-31.3-9.3-48.3c0-23,5.3-44,16-63
		c10.3-19,25-34.3,44-45.3c18.7-11,39.7-16.3,62.7-16.3c17,0,33,3,48.4,9.3c15,6.7,28,15.3,38.7,26c10.7,11.3,19.3,24.3,25.4,39.3
		C4419.5,2757.6,4422.5,2773.6,4422.5,2790.9L4422.5,2790.9L4422.5,2790.9z M4396.1,2792.3c0-27.3-10-52.7-26.7-71
		c-16.7-18.3-41.7-30-69.7-30c-18,0-34.4,4.7-49,13.3c-14.7,9.3-26,21.3-34,36.3c-8,15.3-12,32-12,50c0,27,10,52.7,26.7,70.7
		c16.7,18.3,41.7,30,69.4,30c18,0,34.4-4.7,49-13.7c15-8.7,26.4-21,34.4-36S4396.1,2810.3,4396.1,2792.3L4396.1,2792.3
		L4396.1,2792.3z M4670.1,2669.9h25V2913h-27.7l-145.1-206.7V2913H4497v-243.1h29.7l143.4,204.4V2669.9L4670.1,2669.9z M4787,2913
		v-243.1h152.1v23.7h-126.4v84h115.8v23.7h-115.8v88h127.8v23.7H4787L4787,2913z M5099,2786.3l77.7-116.4h29l-94.1,140.4V2913h-26
		v-102.4l-94.1-140.7h30.7L5099,2786.3L5099,2786.3z M5560.5,2913h-31l-72.1-98.4H5408v98.4h-25.7v-243.1h84.4
		c28.7,0,51.7,8,65,21.3c13.3,13.3,20.3,30,20.3,49.7c0,41-30.7,64.7-66.7,69.4L5560.5,2913L5560.5,2913z M5408,2693.9v97.4h56.4
		c21.3,0,38-6,47.7-15.7c9.3-9.3,14-21,14-34c0-24-14.7-47.7-61-47.7H5408L5408,2693.9z M5630,2913v-243.1h152.1v23.7h-126.4v84
		h115.8v23.7h-115.8v88h127.8v23.7H5630L5630,2913z M6057.7,2669.9L5960,2913h-28.4l-97.7-243.1h28l84.1,214.4l84.4-214.4H6057.7
		L6057.7,2669.9L6057.7,2669.9z M6350.4,2790.9c0,23-5.3,44-15.7,63c-10.7,19-25.4,34-44,45c-19,11-39.7,16.7-63,16.7
		c-17,0-33-3.3-48.4-9.7c-15-6.3-28-15-38.7-26.3c-10.7-10.7-19-23.7-25.4-39c-6-15.3-9.3-31.3-9.3-48.3c0-23,5.3-44,16-63
		c10.3-19,25-34.3,44-45.3c18.7-11,39.7-16.3,62.7-16.3c17,0,33,3,48.4,9.3c15,6.7,28,15.3,38.7,26c10.7,11.3,19.3,24.3,25.4,39.3
		C6347.4,2757.6,6350.4,2773.6,6350.4,2790.9L6350.4,2790.9L6350.4,2790.9z M6324,2792.3c0-27.3-10-52.7-26.7-71
		c-16.7-18.3-41.7-30-69.7-30c-18,0-34.4,4.7-49,13.3c-14.7,9.3-26,21.3-34,36.3c-8,15.3-12,32-12,50c0,27,10,52.7,26.7,70.7
		c16.7,18.3,41.7,30,69.4,30c18,0,34.4-4.7,49-13.7c15-8.7,26.4-21,34.4-36C6320,2827,6324,2810.3,6324,2792.3L6324,2792.3
		L6324,2792.3z M6424.9,2913v-243.1h25.7V2889H6566v24H6424.9L6424.9,2913L6424.9,2913z M6784.2,2669.9h25.7v148
		c0,30.7-8.3,54.7-24,71.7c-16,17-38.7,25.7-67.7,25.7c-28.7,0-51.4-8.7-67.1-26c-16-17.3-24-40.3-24-69.7v-149.7h25.4v148.4
		c0,25.7,7.3,45.3,19.3,56.4c12.3,11.3,28,16.7,47.7,16.7c20.7,0,36.7-6,48-18.7c11-12.7,16.7-30,16.7-53V2669.9L6784.2,2669.9z
		 M6977.8,2693.9V2913h-25.4v-219.1h-81.4v-24h188.1v24H6977.8L6977.8,2693.9L6977.8,2693.9z M7123.7,2913v-243.1h25.7V2913H7123.7
		L7123.7,2913z M7468.4,2790.9c0,23-5.3,44-15.7,63c-10.7,19-25.4,34-44,45c-19,11-39.7,16.7-63,16.7c-17,0-33-3.3-48.4-9.7
		c-15-6.3-28-15-38.7-26.3c-10.7-10.7-19-23.7-25.4-39c-6-15.3-9.3-31.3-9.3-48.3c0-23,5.3-44,16-63c10.3-19,25-34.3,44-45.3
		c18.7-11,39.7-16.3,62.7-16.3c17,0,33,3,48.4,9.3c15,6.7,28,15.3,38.7,26c10.7,11.3,19.3,24.3,25.4,39.3
		C7465.4,2757.6,7468.4,2773.6,7468.4,2790.9L7468.4,2790.9L7468.4,2790.9z M7442,2792.3c0-27.3-10-52.7-26.7-71
		c-16.7-18.3-41.7-30-69.7-30c-18,0-34.4,4.7-49,13.3c-14.7,9.3-26,21.3-34,36.3c-8,15.3-12,32-12,50c0,27,10,52.7,26.7,70.7
		c16.7,18.3,41.7,30,69.4,30c18,0,34.4-4.7,49-13.7c15-8.7,26.4-21,34.4-36C7438,2827,7442,2810.3,7442,2792.3L7442,2792.3z
		 M7716,2669.9h25V2913h-27.7l-145.1-206.7V2913h-25.4v-243.1h29.7l143.4,204.4V2669.9L7716,2669.9z"/>
</g>
</svg>
